<svg width="740" height="400" viewBox="0 0 740 400" fill="none" xmlns="http://www.w3.org/2000/svg">
<path d="M636.846 97.3094C636.846 97.3094 645.219 110.555 654.762 114.718C664.304 118.881 667.285 120.721 670.936 119.231C674.586 117.742 681.593 115.655 686.531 100.912C691.468 86.1693 693.821 78.409 693.995 74.8381C694.17 71.2672 684.353 74.2009 684.353 74.2009C684.353 74.2009 679.066 89.8517 667.483 96.8369L650.987 79.3355L636.846 97.3094Z" fill="#F8F8F8"/>
<path d="M627.06 117.665L633.8 119.502C633.8 119.502 625.974 130.342 632.933 141.692C639.893 153.042 654.225 175.94 654.225 175.94L681.656 219.747L656.001 216.155L636.845 195.08L627.065 185.286L614.809 146.856L627.06 117.665Z" fill="#F8F8F8"/>
<path d="M517.007 173.685C517.613 174.014 518.314 174.12 518.99 173.985C519.666 173.849 520.273 173.481 520.707 172.944L530.683 160.659L538.732 150.512L532.142 146.795C531.46 146.408 530.652 146.309 529.897 146.519C529.141 146.73 528.5 147.233 528.114 147.918L515.833 169.583C515.637 169.928 515.512 170.31 515.466 170.705C515.419 171.099 515.451 171.5 515.56 171.882C515.67 172.264 515.854 172.62 516.102 172.93C516.351 173.239 516.658 173.496 517.007 173.685Z" fill="#2E2E2E"/>
<path d="M668.85 231.627L677.153 239.831C677.869 240.541 678.835 240.939 679.841 240.941H700.604C701.248 240.944 701.879 240.758 702.42 240.406C702.96 240.055 703.388 239.553 703.649 238.962C703.911 238.371 703.995 237.716 703.892 237.077C703.79 236.438 703.504 235.844 703.07 235.365C702.524 234.752 701.77 234.366 700.956 234.282L689.439 233.095L668.85 231.627Z" fill="#2E2E2E"/>
<path d="M593.031 129.02C593.031 129.02 609.089 133.506 619.794 134.844C630.499 136.183 629.748 131.722 629.748 131.722L631.057 126.089C634.493 120.465 636.489 108.502 636.489 108.502L637.869 99.1436L639.883 102.704L646.393 109.291L646.472 109.354C646.274 106.208 646.425 101.788 647.154 95.7666C648.835 81.8282 654.402 83.445 654.402 83.445L653.585 82.545C649.739 76.1174 637.461 69.3234 633.539 67.6986C629.616 66.0738 631.295 68.3756 631.794 70.0881C632.294 71.8005 630.867 76.6192 625.149 74.166C619.432 71.7129 619.144 66.3765 619.144 66.3765H616.487C600.192 68.3438 591.905 77.0732 591.905 77.0732C609.216 81.1751 605.243 95.9232 605.243 95.9232L603.673 97.3648C597.527 102.717 597.099 107.878 597.631 110.029C598.162 112.179 601.952 115.073 608.796 116.751C615.639 118.429 616.884 118.432 618.43 115.461C619.976 112.49 621.779 112.124 624.245 111.678C626.711 111.232 629.733 112.992 629.043 114.378C628.353 115.764 627.853 114.553 629.571 118.296C631.289 122.04 630.491 123.943 625.871 127.392C621.25 130.841 600.707 128.905 600.707 128.905C590.882 126.176 593.031 129.02 593.031 129.02Z" fill="#2E2E2E"/>
<path d="M630.589 66.4641V67.0296V67.1729C635.182 68.3257 639.507 70.3655 643.324 73.1784C643.943 73.6324 644.545 74.0943 645.14 74.5802C645.156 72.6288 644.989 70.6695 644.363 68.8216C643.855 67.2359 642.899 65.8327 641.611 64.7835C640.477 63.8755 639.137 63.2941 637.789 62.7684C636.441 62.2427 635.117 61.7807 633.88 61.0719C632.837 60.499 631.927 59.712 631.208 58.7621C630.955 58.4185 630.798 58.0141 630.752 57.5898C630.705 57.1655 630.771 56.7365 630.943 56.3461C630.822 56.3376 630.702 56.3135 630.586 56.2744L630.589 66.4641Z" fill="#353642"/>
<path d="M630.589 66.4641V67.0296V67.1729C635.182 68.3257 639.507 70.3655 643.324 73.1784C643.943 73.6324 644.545 74.0943 645.14 74.5802C645.156 72.6288 644.989 70.6695 644.363 68.8216C643.855 67.2359 642.899 65.8327 641.611 64.7835C640.477 63.8755 639.137 63.2941 637.789 62.7684C636.441 62.2427 635.117 61.7807 633.88 61.0719C632.837 60.499 631.927 59.712 631.208 58.7621C630.955 58.4185 630.798 58.0141 630.752 57.5898C630.705 57.1655 630.771 56.7365 630.943 56.3461C630.822 56.3376 630.702 56.3135 630.586 56.2744L630.589 66.4641Z" fill="#353642"/>
<path d="M567.133 110.542C568.859 111.782 570.777 112.727 572.811 113.337C573.685 113.608 574.574 113.831 575.473 114.006C571.923 105.604 574.579 94.5484 585.781 82.7605C587.699 80.7388 589.741 78.8395 591.895 77.0736C595.376 74.2302 598.469 72.1115 602.116 70.4071C603.749 69.6502 605.427 68.9933 607.139 68.4398C610.174 67.4248 613.308 66.7333 616.488 66.3769C617.209 66.2893 617.923 66.2255 618.645 66.1857C618.469 64.941 618.503 63.6753 618.748 62.4423C619.414 59.0572 620.574 57.1112 622.683 54.4429C624.005 52.7624 626.069 48.7481 623.318 47.3622C621.581 46.4941 621.423 44.7073 622.239 43.6453C622.929 42.7214 624.325 42.2993 626.046 43.3798C627.235 44.1445 628.647 44.1923 630.01 43.8179C631.07 43.1981 631.988 42.3625 632.707 41.3647C634.705 38.4895 634.776 34.1327 631.649 32.022C629.944 30.8671 627.772 30.5884 625.734 30.8114C624.821 30.9119 623.922 31.1095 623.051 31.4008C623.047 31.3991 623.043 31.3982 623.039 31.3982C623.035 31.3982 623.031 31.3991 623.027 31.4008C619.326 33.4 616.696 37.0956 615.428 41.2612C614.682 43.7223 613.842 46.1596 612.858 48.549C612.05 50.5083 611.487 52.8898 609.687 54.2279C608.934 54.7869 608.08 55.1928 607.173 55.4226C603.771 57.589 599.053 56.3386 595.334 55.8766C592.36 55.4683 589.333 55.774 586.5 56.7687C583.328 58.3802 580.6 60.9528 578.388 64.2981C574.732 69.8336 578.602 77.8143 572.488 82.179C570.638 83.4932 568.523 84.2897 566.501 85.3092C563.615 86.7827 561.284 88.8774 560.422 92.1032C558.72 98.6104 561.749 106.615 567.133 110.542Z" fill="#353642"/>
<path d="M716.621 240.941L563.055 240.941" stroke="black" stroke-width="0.8" stroke-miterlimit="10"/>
<path d="M635.894 38.7439C636.266 39.5175 636.583 40.3158 636.846 41.1333C637.226 42.4607 636.814 43.2837 637.393 44.5501C637.591 44.9881 637.876 45.7288 638.186 46.4775C638.273 46.3023 638.352 46.1589 638.4 46.0474C640.668 40.974 637.686 38.5289 636.251 37.6926C636.16 38.0519 636.04 38.4034 635.894 38.7439Z" fill="#353642"/>
<path d="M635.894 38.7439C636.266 39.5175 636.583 40.3158 636.846 41.1333C637.226 42.4607 636.814 43.2837 637.393 44.5501C637.591 44.9881 637.876 45.7288 638.186 46.4775C638.273 46.3023 638.352 46.1589 638.4 46.0474C640.668 40.974 637.686 38.5289 636.251 37.6926C636.16 38.0519 636.04 38.4034 635.894 38.7439Z" fill="#353642"/>
<path d="M585.641 124.337C584.256 135.307 585.376 154.337 607.743 168.897C611.769 171.517 615.393 175.218 618.943 178.418C628.625 187.206 637.835 196.504 646.536 206.273C651.862 212.204 657.299 218.438 662.699 224.443C665.467 227.513 668.266 230.553 671.094 233.566C673.177 235.772 676.481 240.939 679.83 240.939H700.41C702.26 240.939 703.941 239.417 703.915 237.551C703.9 236.744 703.596 235.97 703.059 235.371C702.513 234.758 701.759 234.372 700.944 234.288L689.427 233.101L633.785 144.219C630.914 139.632 628.369 132.081 630.589 127.135C639.047 108.322 638.32 90.0879 638.32 90.0879" stroke="black" stroke-width="0.8" stroke-miterlimit="10"/>
<path d="M614.449 174.615C612.023 183.177 608.106 191.872 604.87 197.347C603.698 199.345 602.153 201.098 600.319 202.508C593.69 207.608 584.319 207.064 577.962 201.629L546.346 174.599L530.685 160.658L520.71 172.943C520.238 173.519 519.568 173.897 518.833 174.001C518.097 174.106 517.35 173.93 516.737 173.508C516.125 173.086 515.692 172.448 515.525 171.721C515.357 170.994 515.467 170.231 515.833 169.581L528.116 147.923C528.502 147.237 529.144 146.734 529.899 146.524C530.654 146.313 531.462 146.412 532.144 146.799L538.734 150.516L576.49 171.756C577.118 172.109 577.821 172.307 578.54 172.334C579.259 172.361 579.975 172.216 580.627 171.912C581.28 171.607 581.851 171.151 582.294 170.581C582.737 170.011 583.039 169.344 583.175 168.634L587.647 145.079" stroke="black" stroke-width="0.8" stroke-miterlimit="10"/>
<path d="M630.589 54.697V66.3787V66.9442V67.0875C631.786 68.8398 632.389 71.3354 631.247 73.1939C629.717 75.6869 626.339 75.2727 624.198 73.8789C623.567 73.4695 622.966 73.0171 622.398 72.5248C620.492 70.8618 619.258 68.5556 618.93 66.0415C618.754 64.7968 618.789 63.5311 619.033 62.298C619.704 58.9157 620.862 56.9722 622.974 54.2961C624.295 52.6235 626.357 48.6039 623.603 47.218C620.376 45.6012 622.612 40.8701 626.331 43.2356C629.217 45.0755 633.364 42.7816 635.077 40.3152C637.075 37.4399 637.147 33.0832 634.02 30.9725C632.315 29.8176 630.142 29.5388 628.104 29.7618C621.895 30.4468 617.476 35.3213 615.708 41.1196C614.962 43.5808 614.122 46.018 613.138 48.4074C612.33 50.3668 611.766 52.7482 609.966 54.0863C606.53 56.659 601.577 55.3129 597.699 54.835C589.627 53.8394 583.116 57.4315 578.668 64.1565C575.012 69.692 578.882 77.6728 572.768 82.0375C570.918 83.3517 568.803 84.1481 566.781 85.1676C563.895 86.6411 561.563 88.7359 560.715 91.9616C559.002 98.4609 562.037 106.466 567.416 110.392C569.882 112.192 572.768 113.267 575.766 113.857" stroke="black" stroke-width="0.8" stroke-miterlimit="10"/>
<path d="M646.525 76.0938C646.541 75.9451 646.546 75.8017 646.554 75.661C646.689 73.0937 646.673 70.4335 645.84 67.9617C645.329 66.3777 644.373 64.9761 643.086 63.9262C641.949 63.0209 640.609 62.4341 639.266 61.9085C637.924 61.3828 636.591 60.9261 635.357 60.2146C634.312 59.6443 633.401 58.8558 632.685 57.9022C632.434 57.5596 632.277 57.1566 632.231 56.7338C632.184 56.311 632.25 55.8834 632.42 55.4941" stroke="black" stroke-width="0.8" stroke-miterlimit="10"/>
<path d="M628.086 52.0637C629.022 53.4071 630.29 54.8567 631.89 55.3797C633.959 56.0567 635.352 54.2912 636.095 52.5734C636.539 51.5513 636.846 50.4628 637.205 49.4061C637.321 49.0583 637.393 48.8911 637.789 48.8751C638.186 48.8592 638.603 48.9388 639.01 48.9388C639.039 48.9382 639.068 48.9298 639.092 48.9145C639.117 48.8993 639.137 48.8778 639.151 48.8521C639.165 48.8265 639.171 48.7977 639.17 48.7686C639.169 48.7395 639.161 48.7113 639.145 48.6866C638.598 47.8503 637.781 45.5697 637.369 44.6564C636.795 43.39 637.21 42.5697 636.824 41.2395C636.562 40.423 636.246 39.6248 635.878 38.8501" stroke="black" stroke-width="0.8" stroke-miterlimit="10"/>
<path d="M636.489 36.3943C636.489 36.3943 642.132 38.5688 639.217 45.1031C639.037 45.4987 638.596 46.3244 638.387 46.6961" stroke="black" stroke-width="0.8" stroke-miterlimit="10"/>
<path d="M697.359 17.7644C697.359 17.7644 697.39 17.7798 697.452 17.803L697.359 17.7644Z" fill="#353642"/>
<path d="M636.176 52.3848C635.724 52.4471 635.266 52.3418 634.886 52.0887C634.506 51.8356 634.231 51.4521 634.112 51.01" stroke="black" stroke-width="0.8" stroke-miterlimit="10"/>
<path d="M637.132 43.6347C635.963 42.6785 634.681 43.9003 633.898 44.7874" stroke="black" stroke-width="0.8" stroke-miterlimit="10"/>
<path d="M618.937 66.0444C615.019 66.2935 611.149 67.0493 607.424 68.2932C601.344 70.295 597.157 72.8782 592.191 76.927C590.037 78.6962 587.995 80.5981 586.077 82.6218C574.864 94.4097 572.213 105.47 575.768 113.87C578.657 120.715 585.318 124.96 592.143 127.124C596.607 128.536 601.259 129.144 605.927 129.28C611.491 129.439 617.103 129.227 622.58 128.165C624.887 127.719 627.546 127.352 628.924 125.199C630.301 123.046 630.417 120.141 629.394 117.834C628.435 115.686 625.844 113.377 623.502 115.062C623.243 115.251 623.029 115.496 622.878 115.779C622.726 116.062 622.64 116.377 622.627 116.698" stroke="black" stroke-width="0.8" stroke-miterlimit="10"/>
<path d="M614.706 80.248C614.997 89.052 607.569 93.9611 607.569 93.9611C605.106 95.9656 602.711 98.1188 600.697 100.585C599.409 102.16 598.215 103.923 597.623 105.895C597.18 107.24 597.187 108.694 597.644 110.034C598.148 111.274 598.982 112.35 600.054 113.146C602.058 114.72 604.495 115.536 606.911 116.242C609.573 117.007 612.285 117.587 615.026 117.978C616.612 118.206 617.281 117.713 618.005 116.335C618.661 115.087 619.197 113.643 620.41 112.827C622.092 111.694 624.349 111.431 626.294 111.898C629.295 112.615 630.061 115.005 627.616 115.488" stroke="black" stroke-width="0.8" stroke-miterlimit="10"/>
<path d="M612.874 139.976L567.291 128.913L556.443 174.004L600.763 185.07L602.185 184.414L612.874 139.976Z" fill="#F8F8F8"/>
<path d="M591.842 133.637C594.004 118.435 598.691 114.675 601.741 113.924L601.54 113.812C592.331 110.212 585.945 128.024 584.589 132.19L591.842 133.637Z" fill="#EBECEC"/>
<path d="M591.715 134.842C593.877 119.64 598.69 114.664 601.74 113.924L601.54 113.812C592.33 110.212 585.68 128.882 584.319 133.044L591.715 134.842Z" fill="#EBECEC"/>
<path d="M601.54 113.812C591.125 109.745 584.319 133.044 584.319 133.044L591.72 134.842C596.02 111.478 605.248 115.726 605.248 115.726C604.923 115.628 601.54 113.812 601.54 113.812Z" stroke="black" stroke-width="0.8" stroke-miterlimit="10"/>
<path d="M566.784 131.063L556.445 174.019L592.407 182.751L602.745 139.795L566.784 131.063Z" fill="#353642"/>
<path d="M567.332 128.788L556.446 174.021L594.311 183.215L605.198 137.982L567.332 128.788Z" fill="#F8F8F8"/>
<path d="M567.511 132.229L558.135 171.186C557.869 172.29 558.545 173.402 559.644 173.669L591.624 181.434C592.723 181.701 593.83 181.022 594.096 179.918L603.472 140.961C603.738 139.856 603.062 138.744 601.962 138.477L569.983 130.713C568.883 130.446 567.776 131.125 567.511 132.229Z" fill="#353642"/>
<path d="M567.299 128.929L556.446 174.02L594.312 183.214L605.164 138.123L567.299 128.929Z" stroke="black" stroke-width="0.8" stroke-miterlimit="10"/>
<path d="M605.323 138.159L594.471 183.25L602.029 185.085L612.882 139.994L605.323 138.159Z" fill="#F8F8F8"/>
<path d="M605.323 138.159L594.471 183.25L602.029 185.085L612.882 139.994L605.323 138.159Z" stroke="black" stroke-width="0.8" stroke-miterlimit="10"/>
<path d="M602.026 185.07L599.591 178.781L594.466 183.235" stroke="black" stroke-width="0.8" stroke-miterlimit="10"/>
<path d="M609.097 139.061L599.592 178.782" stroke="black" stroke-width="0.8" stroke-miterlimit="10"/>
<path d="M692.48 65.9143C692.337 65.9382 692.216 65.9621 692.06 65.994C690.63 66.2446 689.274 66.8164 688.095 67.6666C686.802 68.6701 685.629 70.4144 685.058 71.9145C684.194 74.1924 683.245 76.4331 682.211 78.6367C680.649 82.0336 678.792 85.2853 676.66 88.3538C674.448 91.476 671.791 94.6406 668.445 96.5841C668.025 96.839 667.583 97.0549 667.123 97.2292C666.56 97.4682 658.639 88.314 657.766 87.2945C654.269 83.2085 650.653 79.1624 646.554 75.6659C645.515 74.7738 644.439 73.9136 643.334 73.1092C639.515 70.2939 635.187 68.2515 630.591 67.0958" stroke="black" stroke-width="0.8" stroke-miterlimit="10"/>
<path d="M706.732 65.5798C706.748 65.5837 706.764 65.5837 706.78 65.5798C710.443 66.0099 709.008 69.9764 706.431 69.849C703.584 69.7056 700.745 69.849 697.907 69.8968C697.124 69.8708 696.345 70.0148 695.623 70.3189C694.196 71.0039 694.061 72.5331 693.847 73.919C693.561 75.735 693.236 77.5509 692.853 79.351C692.107 82.9192 691.188 86.4396 690.133 89.9282C689.451 92.1902 688.698 94.4416 687.905 96.6691C685.589 103.232 682.671 110.193 677.763 115.254C675.051 118.057 671.498 120.128 667.494 119.825C661.856 119.403 656.432 116.56 651.65 113.326C651.63 113.312 651.611 113.296 651.594 113.278C649.81 112.072 648.099 110.758 646.472 109.344C646.472 109.344 639.882 103.45 637.868 99.1329" stroke="black" stroke-width="0.8" stroke-miterlimit="10"/>
<path d="M717.151 62.012V62.3837C717.151 64.9484 715.094 65.3891 713.318 65.4316L678.936 66.2281C677.43 66.2679 676.164 64.9431 676.132 63.289V63.22C676.132 61.5978 677.316 60.2491 678.804 60.2119C678.804 60.2119 698.037 59.6676 712.932 59.2561C713.215 60.1615 713.907 60.8624 714.766 61.4093C715.484 61.8429 716.314 62.0527 717.151 62.012Z" stroke="black" stroke-width="0.8" stroke-miterlimit="10"/>
<path d="M735.415 25.4716C735.415 25.8943 735.315 26.3109 735.124 26.6876L719.759 58.3484C719.578 58.7143 719.321 59.0366 719.005 59.2932C718.689 59.5499 718.321 59.7347 717.927 59.8352C717.292 59.9966 716.621 59.927 716.032 59.6387C715.561 59.4063 715.165 59.0461 714.888 58.5988C714.611 58.1516 714.464 57.6353 714.464 57.1085C714.467 56.6873 714.562 56.2719 714.745 55.8925L730.118 24.2291C730.397 23.6637 730.859 23.2096 731.427 22.9406C731.996 22.6715 732.638 22.6032 733.25 22.7467C733.862 22.8902 734.408 23.2372 734.799 23.7313C735.19 24.2254 735.403 24.8377 735.405 25.469L735.415 25.4716Z" stroke="black" stroke-width="0.8" stroke-miterlimit="10"/>
<path d="M693.604 18.9597C698.266 18.9597 702.046 15.1631 702.046 10.4799C702.046 5.79656 698.266 2 693.604 2C688.941 2 685.161 5.79656 685.161 10.4799C685.161 15.1631 688.941 18.9597 693.604 18.9597Z" fill="#353642"/>
<path d="M690.921 13.3973C690.641 13.2921 690.379 13.1443 690.144 12.9592C689.73 12.6455 689.445 12.1897 689.343 11.6786C689.242 11.1676 689.331 10.6369 689.594 10.1877C689.766 9.89591 690.002 9.64814 690.285 9.46386C690.568 9.27958 690.89 9.16384 691.225 9.12575C691.039 8.68739 691.001 8.20017 691.115 7.73782C691.229 7.27546 691.491 6.86311 691.859 6.56315C692.228 6.26319 692.683 6.09194 693.157 6.07531C693.632 6.05868 694.098 6.19757 694.487 6.47097C695.303 7.04175 695.869 8.04791 696.215 8.96646C696.394 9.44881 696.525 9.94766 696.606 10.4558C696.646 10.7213 696.916 12.1814 696.704 12.3301C695.309 13.3017 692.71 14.0822 690.921 13.3973Z" fill="#F8F8F8"/>
<g opacity="0.72">
<path opacity="0.72" d="M686.48 36.6489C689.046 36.6489 691.127 34.5593 691.127 31.9817C691.127 29.404 689.046 27.3145 686.48 27.3145C683.914 27.3145 681.833 29.404 681.833 31.9817C681.833 34.5593 683.914 36.6489 686.48 36.6489Z" fill="#353642"/>
<path opacity="0.72" d="M687.403 33.9649C687.291 34.0869 687.161 34.1908 687.017 34.273C686.77 34.4175 686.48 34.4667 686.2 34.4115C685.92 34.3562 685.67 34.2002 685.496 33.9728C685.383 33.8238 685.305 33.6502 685.27 33.4658C685.234 33.2814 685.242 33.0912 685.293 32.9104C685.032 32.912 684.779 32.8289 684.569 32.6733C684.36 32.5178 684.207 32.2983 684.132 32.0478C684.058 31.7973 684.066 31.5293 684.156 31.284C684.246 31.0387 684.413 30.8294 684.632 30.6873C685.128 30.4116 685.692 30.2861 686.258 30.3261C686.54 30.334 686.821 30.3714 687.096 30.4377C687.236 30.4695 688.035 30.6395 688.067 30.7776C688.27 31.6993 688.125 33.1946 687.403 33.9649Z" fill="#F8F8F8"/>
</g>
<path d="M712.641 21.796L708.08 24.2377C706.426 25.1233 705.8 27.1882 706.682 28.8497L709.113 33.4303C709.994 35.0919 712.05 35.7208 713.704 34.8351L718.265 32.3934C719.919 31.5078 720.545 29.4428 719.663 27.7813L717.232 23.2007C716.351 21.5392 714.295 20.9103 712.641 21.796Z" fill="#353642"/>
<path d="M714.467 33.5329L717.769 31.7646C718.457 31.3934 718.971 30.7638 719.199 30.0131C719.427 29.2625 719.35 28.4518 718.985 27.758L716.87 23.7753C716.501 23.0834 715.874 22.5664 715.126 22.3375C714.379 22.1086 713.571 22.1864 712.881 22.554L712.659 22.6735C711.834 23.8231 710.737 25.7906 712.395 26.4092C714.774 27.304 714.078 28.6448 713.188 30.3627C712.432 31.8044 712.239 33.4904 714.467 33.5329Z" fill="#F8F8F8"/>
<path d="M709.326 28.7108C710.015 28.7108 710.574 28.1497 710.574 27.4576C710.574 26.7654 710.015 26.2043 709.326 26.2043C708.637 26.2043 708.078 26.7654 708.078 27.4576C708.078 28.1497 708.637 28.7108 709.326 28.7108Z" fill="#F8F8F8"/>
<path d="M693.958 49.6277C694.42 49.8534 694.913 50.0108 695.42 50.095C696.351 50.2383 697.303 50.1366 698.184 49.7996C699.064 49.4627 699.842 48.9021 700.442 48.1727C700.905 47.5939 701.251 46.869 701.738 46.2849C702.07 45.8587 702.515 45.5349 703.022 45.3503C703.196 45.3129 703.359 45.2336 703.495 45.1193C703.829 44.7742 703.263 44.4821 703.149 44.2033C702.979 43.7535 702.979 43.2565 703.149 42.8067C703.583 41.6242 703.595 40.3272 703.184 39.1367C702.772 37.9462 701.962 36.9359 700.892 36.2781C699.822 35.6204 698.557 35.3558 697.315 35.5296C696.072 35.7033 694.928 36.3046 694.077 37.231C693.236 38.1417 692.731 39.3046 692.208 40.4171C691.743 41.4075 691.249 42.3925 690.992 43.4572C690.397 45.9796 691.74 48.5418 693.958 49.6277Z" fill="#353642"/>
<path d="M698.678 40.6653C699.328 40.6653 699.854 40.1366 699.854 39.4843C699.854 38.832 699.328 38.3032 698.678 38.3032C698.029 38.3032 697.502 38.832 697.502 39.4843C697.502 40.1366 698.029 40.6653 698.678 40.6653Z" fill="#F8F8F8"/>
<path d="M697.137 43.9261C697.787 43.9261 698.313 43.3973 698.313 42.745C698.313 42.0927 697.787 41.564 697.137 41.564C696.488 41.564 695.961 42.0927 695.961 42.745C695.961 43.3973 696.488 43.9261 697.137 43.9261Z" fill="#F8F8F8"/>
<path d="M695.691 46.984C696.341 46.984 696.867 46.4552 696.867 45.8029C696.867 45.1506 696.341 44.6218 695.691 44.6218C695.042 44.6218 694.516 45.1506 694.516 45.8029C694.516 46.4552 695.042 46.984 695.691 46.984Z" fill="#F8F8F8"/>
<g opacity="0.54">
<path opacity="0.54" d="M667.457 54.44C667.814 54.3924 668.167 54.3188 668.514 54.2196L672.495 53.094C673.713 52.7488 674.995 52.3665 675.86 51.4346C677.461 49.7063 676.943 46.9611 676.322 44.6831C675.817 42.8194 675.31 40.9556 674.802 39.0918C674.453 37.8069 674.094 36.5006 673.399 35.3749C672.704 34.2492 671.604 33.2828 670.293 33.0758C669.328 32.9244 668.35 33.1846 667.407 33.4421L663.587 34.5041C662.334 34.8466 661.013 35.2316 660.135 36.1953C658.576 37.9077 659.078 40.5945 659.675 42.8326L661.2 48.554C662.136 51.9922 663.888 54.8913 667.457 54.44Z" fill="#353642"/>
<path opacity="0.54" d="M667.192 46.6363C667.428 46.8674 667.72 47.0322 668.039 47.1139C668.359 47.1956 668.694 47.1915 669.011 47.1019C669.328 47.0123 669.616 46.8404 669.846 46.6034C670.076 46.3665 670.24 46.0729 670.322 45.7522L670.766 44.0054L671.207 42.2559C671.288 41.9352 671.284 41.5987 671.194 41.2803C671.105 40.9618 670.933 40.6726 670.697 40.4418C670.461 40.2109 670.169 40.0466 669.85 39.9652C669.53 39.8838 669.195 39.8882 668.878 39.9781L667.152 40.4665L665.424 40.955C665.107 41.0457 664.82 41.2184 664.591 41.4558C664.362 41.6932 664.199 41.987 664.119 42.3076C664.038 42.6282 664.043 42.9644 664.133 43.2824C664.223 43.6005 664.395 43.8891 664.631 44.1195L665.918 45.3779L667.192 46.6363Z" fill="#F8F8F8"/>
</g>
<path d="M57.2161 77.432C59.9108 77.5993 62.2445 77.4055 63.5375 76.5665C68.7836 73.1762 70.7934 72.608 73.8917 71.9416C74.6057 71.7934 75.3457 71.8289 76.0423 72.0448C76.7388 72.2607 77.3691 72.65 77.8741 73.1762C77.8741 73.1762 77.8741 73.1921 77.89 73.1921C79.7963 74.6444 81.66 76.378 81.9308 78.656C82.045 79.6091 81.8167 81.2631 80.4016 81.3932C79.7458 81.4543 79.2387 81.0958 78.8352 80.6339C78.6679 81.8313 78.3706 83.0631 77.7732 83.9738C76.9422 85.2243 75.5537 85.8535 74.2156 86.4216C72.7554 87.0429 71.2686 87.5845 69.7659 88.0996C67.0287 89.0341 64.249 89.8651 61.4507 90.6005C62.7991 92.9969 64.4765 95.1926 66.434 97.1237C71.894 92.3366 77.8877 88.195 84.2964 84.7809C91.4328 80.8197 98.2002 77.2143 104.599 73.9647C82.1299 72.7222 89.9806 47.2534 89.9806 47.2534L83.6247 48.2862C83.6247 48.2862 82.4379 66.8017 71.8686 69.1168C60.2506 71.6788 59.6559 57.1908 59.5338 55.2156L55.7744 56.9121C55.7744 56.9121 54.0779 61.0139 57.2161 77.432Z" fill="#2E2E2E"/>
<path d="M76.6796 10.1984C77.5161 11.3355 77.9605 12.7135 77.946 14.1251C77.9725 17.7703 79.2734 15.2773 80.4894 19.273C80.7879 20.3476 81.0018 21.4439 81.1292 22.5518C81.6602 26.7307 81.6363 31.8892 81.6363 31.8892C81.6363 31.8892 83.4948 36.838 86.6621 38.9275C86.8825 39.0761 87.1081 39.2248 87.3365 39.3735C87.8435 39.7319 88.3586 40.101 88.8577 40.5018C89.6137 41.0845 90.3157 41.734 90.9551 42.4426C92.1021 43.7356 92.8959 45.1958 92.941 46.8498C92.9482 47.1534 92.9305 47.4571 92.8879 47.7578C92.8879 47.7578 94.234 47.6887 96.403 47.7153C97.1624 47.7153 98.0279 47.7312 98.973 47.7684H98.9916C100.319 47.8188 101.79 47.9065 103.354 48.0339C107.54 48.4189 112.38 49.2233 116.652 50.8056C126.882 54.5995 133.875 59.689 133.875 59.689L135.802 59.559C136.019 57.9278 136.092 56.2807 136.02 54.6367C135.754 48.8914 133.45 41.5134 124.155 38.4708C108.138 33.2433 107.764 30.2883 107.764 30.2883C107.764 30.2883 107.718 30.2432 107.631 30.1476C107.631 30.1476 107.631 30.1476 107.615 30.129C107.352 29.9413 107.131 29.7008 106.967 29.4228C106.965 29.4141 106.965 29.405 106.967 29.3963C106.961 29.398 106.955 29.398 106.948 29.3963C106.933 29.3891 106.921 29.3769 106.914 29.3617C106.383 28.9502 102.135 25.4802 100.131 20.8819C99.9368 20.4359 99.727 19.9367 99.4907 19.3951C99.4928 19.3891 99.4928 19.3826 99.4907 19.3765C97.3004 15.6809 93.7561 10.3896 88.4462 8.32937C85.186 7.06297 81.5036 7.4559 78.4557 9.16567L78.4106 9.19222C77.8159 9.49754 77.2212 9.84799 76.6796 10.1984Z" fill="#353642"/>
<path d="M131.332 117.436C121.67 133.034 92.0757 140.088 81.4533 142.17C101.1 164.325 111.685 191.429 111.685 191.429L96.2731 210.943C95.8082 211.466 95.1712 211.804 94.4779 211.896C93.7846 211.989 93.0811 211.83 92.4953 211.447C91.9096 211.065 91.4805 210.485 91.286 209.814C91.0916 209.142 91.1448 208.422 91.4359 207.786L97.0856 194.358L60.6519 149.739C57.7462 146.178 56.2361 141.682 56.4037 137.089C56.5713 132.496 58.4051 128.122 61.5625 124.783C71.038 114.763 87.7747 101.069 114.738 90.8499" stroke="black" stroke-width="0.8" stroke-linejoin="round"/>
<path d="M51.733 24.2485C51.8897 25.8919 52.3198 26.784 52.5454 25.6663C53.0764 23.0591 55.4659 20.3934 55.8854 20.0271C55.9226 20.0005 55.9571 19.966 56.0182 19.9209C56.6819 19.3899 58.9387 17.8154 59.2626 18.9597C59.6104 20.2023 63.1601 22.6927 65.7408 24.206C66.5042 24.6696 67.1566 25.295 67.652 26.0382C68.1475 26.7813 68.4738 27.6241 68.6082 28.5071L69.0091 28.3239C69.0091 28.3239 70.6021 27.554 72.8482 28.4806C75.0943 29.4071 74.7067 33.7348 71.6773 35.3543C71.2499 35.58 70.8994 35.7897 70.6153 35.9729C70.4684 36.1034 70.3103 36.2207 70.1427 36.3234C70.1427 36.3234 70.1268 36.3234 70.1188 36.342C69.0781 37.181 69.6463 37.4597 69.6463 37.4597C70.9738 40.2156 73.6287 39.5837 74.935 39.0872C79.9105 34.8393 80.2158 25.3078 79.3503 22.6263C78.4237 19.7669 74.9191 12.1523 65.8762 11.5576C61.8937 11.2921 59.3104 11.786 57.3802 12.7019C55.9704 13.7852 54.9057 15.1392 53.6101 16.5118C51.7675 18.4951 51.5153 22.0528 51.733 24.2485Z" fill="#353642"/>
<path d="M126.645 123.089L173.372 221.555C173.737 222.363 173.83 223.268 173.637 224.133L168.723 237.084C168.477 238.178 167.866 239.155 166.991 239.856C166.116 240.556 165.028 240.938 163.907 240.939H155.127C154.809 240.949 154.493 240.896 154.196 240.782C153.899 240.667 153.628 240.495 153.4 240.273C153.171 240.052 152.989 239.788 152.865 239.495C152.741 239.202 152.677 238.887 152.677 238.569C152.677 238.251 152.741 237.936 152.865 237.644C152.989 237.351 153.171 237.086 153.4 236.865C153.628 236.644 153.899 236.471 154.196 236.357C154.493 236.242 154.809 236.189 155.127 236.2H158.305L160.148 225.925L102.286 136.552" stroke="black" stroke-width="0.8" stroke-linejoin="round"/>
<path d="M74.7619 39.1104L81.6333 51.9797" stroke="black" stroke-width="0.8" stroke-linejoin="round"/>
<path d="M64.1059 138.435C83.6409 143.102 107.764 130.446 107.764 130.446C185.702 93.609 205.343 66.688 210.021 53.5646C209.847 52.6176 209.416 51.7367 208.774 51.0187C208.132 50.3007 207.305 49.7734 206.384 49.4946C193.178 45.4565 159.906 45.1697 83.7258 86.5601C83.7258 86.5601 63.5245 96.4683 54.0039 112.188C53.9961 112.2 53.9898 112.212 53.9853 112.225C53.3982 113.323 52.8665 114.449 52.3923 115.6C51.4672 117.856 51.0418 120.286 51.1452 122.723C51.2487 125.159 51.8786 127.544 52.9917 129.714C54.1047 131.884 55.6745 133.787 57.5931 135.293C59.5117 136.798 61.7336 137.87 64.1059 138.435Z" fill="#353642"/>
<path d="M95.0359 116.999C105.547 119.508 118.529 112.7 118.529 112.7C131.679 106.485 144.765 99.6036 156.389 90.7866C162.23 86.3608 170.991 79.8111 173.226 72.441C173.492 71.5569 173.41 70.5082 172.778 69.8365C172.292 69.3214 171.575 69.1064 170.89 68.9365C160.836 66.4594 150.293 69.7648 140.815 73.0171C128.496 77.2438 117.234 83.3713 105.587 89.0848C105.587 89.0848 94.7173 94.4159 89.5853 102.89C89.2694 103.485 88.9826 104.088 88.7278 104.706C86.6596 109.78 89.7313 115.73 95.0359 116.999Z" fill="#F8F8F8"/>
<path d="M64.1059 138.436C83.6382 143.103 107.761 130.447 107.761 130.447C118.402 125.421 127.957 120.576 136.524 115.932L157.544 103.762C195.201 80.3535 206.742 63.0115 210.106 53.3369C210.342 52.6634 210.439 51.9487 210.39 51.2366C210.341 50.5244 210.148 49.8297 209.821 49.1947C209.495 48.5598 209.043 47.9979 208.493 47.5433C207.942 47.0888 207.305 46.7511 206.62 46.5509C198.602 44.188 183.257 43.2535 155.595 52.2325L134.393 60.1283C125.448 63.8452 115.543 68.417 104.612 73.9684C98.2138 77.2251 91.4419 80.8297 84.2966 84.782C77.8822 88.1959 71.8831 92.3384 66.4183 97.1274C60.8137 102.092 55.3313 108.371 52.3684 115.6C51.444 117.858 51.0198 120.29 51.1249 122.728C51.2301 125.165 51.8621 127.551 52.9775 129.721C54.093 131.892 55.6653 133.794 57.5864 135.298C59.5075 136.803 61.7316 137.873 64.1059 138.436V138.436Z" stroke="black" stroke-width="0.8" stroke-miterlimit="10"/>
<path d="M147.375 111.314C147.375 111.314 146.048 110.424 145.53 108.274C145.012 106.123 144.542 102.481 144.096 103.466C143.65 104.451 142.163 107.745 140.703 107.307C139.243 106.869 137.828 107.103 138.829 102.653C139.83 98.2036 142.259 96.5231 141.98 93.6133C141.702 90.7034 140.531 83.6068 134.281 79.9032C128.031 76.1996 118.561 70.3322 109.088 69.841C99.6155 69.3498 112.439 60.8992 112.439 60.8992L130.999 57.6177C130.999 57.6177 141.999 64.3506 149.696 76.2022C157.392 88.0538 159.431 91.4787 160.493 100.816C160.493 100.816 161.024 105.022 159.208 105.619C157.392 106.216 149.812 109.933 149.812 109.933L147.375 111.314Z" fill="#F8F8F8"/>
<path d="M95.2399 70.8136C98.9382 69.7304 102.854 69.4516 106.693 69.6507C114.8 70.091 122.678 72.4915 129.653 76.6465C132.738 78.5049 135.659 80.7723 137.958 83.5785C138.999 84.819 139.88 86.1855 140.581 87.6459C141.805 90.2504 142.471 92.8389 141.606 95.6717C140.923 97.8833 139.638 99.8586 138.99 102.089C138.598 103.416 137.915 105.832 139.243 106.868C141.797 108.861 143.711 104.526 144.314 102.909C144.315 102.892 144.32 102.875 144.328 102.859C144.336 102.844 144.348 102.83 144.361 102.819C144.374 102.807 144.39 102.799 144.407 102.794C144.423 102.789 144.441 102.787 144.458 102.788C144.476 102.79 144.493 102.795 144.508 102.803C144.524 102.811 144.537 102.822 144.549 102.836C144.56 102.849 144.568 102.865 144.574 102.881C144.579 102.898 144.581 102.916 144.579 102.933C144.77 104.964 145.715 111.747 148.086 111.869C150.919 112.01 150.901 110.584 150.794 109.605C150.688 108.625 153.367 112.385 154.538 107.733C154.538 107.733 157.989 109.281 158.087 105.978C161.454 106.894 160.604 101.815 160.405 99.917C159.343 89.661 153.157 80.8413 147.202 72.7783C137.533 59.6735 123.098 51.0795 107.02 48.483C98.0564 47.0374 88.9091 47.1731 79.9926 48.8839" stroke="black" stroke-width="0.8" stroke-linecap="round" stroke-linejoin="round"/>
<path d="M55.8253 69.4858C55.8191 72.1484 56.1184 74.8029 56.7173 77.3972" stroke="black" stroke-width="0.8" stroke-linecap="round" stroke-linejoin="round"/>
<path d="M62.1574 90.4172C63.5345 92.6673 65.0645 94.82 66.7368 96.8602" stroke="black" stroke-width="0.8" stroke-linecap="round" stroke-linejoin="round"/>
<path d="M78.838 80.6337C79.2388 81.0956 79.7459 81.454 80.4017 81.393C81.8193 81.2629 82.0477 79.6089 81.9335 78.6558C81.668 76.3674 79.8096 74.6444 77.8928 73.1922C77.8928 73.1922 77.8928 73.1922 77.8769 73.1763" stroke="black" stroke-width="0.8" stroke-linejoin="round"/>
<path d="M52.5041 26.1067C52.3368 27.628 52.2678 29.1492 52.1377 30.6705L52.0846 31.467C52.0156 36.4078 52.8811 39.8699 53.9112 42.246C54.492 43.5736 55.5757 44.6166 56.9245 45.1462C58.2734 45.6757 59.7772 45.6487 61.1061 45.0709L64.5708 43.5682" stroke="black" stroke-width="0.8" stroke-linejoin="round"/>
<path d="M93.2012 47.256C92.8666 40.0239 79.8601 39.1823 81.6256 26.282" stroke="black" stroke-width="0.8" stroke-linejoin="round"/>
<path d="M70.3876 36.119C72.7452 35.0888 75.2569 32.0436 73.7488 29.4815C72.0709 26.6433 68.6087 28.5018 68.6087 28.5018C68.5025 26.4309 64.5333 22.7936 62.7943 21.9891C61.5438 21.4023 59.3428 19.8651 59.0534 18.3783C59.0534 18.3783 53.8576 19.504 52.546 25.661C52.1 27.7504 50.9822 20.9563 53.2018 17.165C55.3975 13.4427 59.4729 10.708 63.7129 10.3204C66.2909 10.0841 68.1547 10.3469 70.7168 11.1328C73.7408 12.0515 76.5312 13.6949 78.5411 16.0924C81.674 19.7642 82.1864 25.0344 81.143 29.6328C80.2589 33.533 78.103 38.62 73.7435 39.4563C72.4664 39.7006 71.354 39.2094 70.4221 38.3784C69.7769 37.8075 68.8477 36.6951 70.1141 36.2252L70.3876 36.119Z" stroke="black" stroke-width="0.8" stroke-linejoin="round"/>
<path d="M138.192 58.7043C139.851 48.0129 134.74 36.4188 124.246 35.3966C104.389 33.4638 100.617 22.2813 98.3042 16.6953C95.9917 11.1093 86.9517 -0.843192 74.808 8.59775C74.808 8.59775 70.8734 8.43314 70.7168 11.1332" stroke="black" stroke-width="0.8" stroke-linejoin="round"/>
<path d="M56.0664 27.5751C56.0664 27.5751 53.3201 24.3029 52.0532 28.3453" stroke="black" stroke-width="0.8" stroke-linejoin="round"/>
<path d="M58.9425 26.2107C59.4961 25.6544 60.2147 25.2919 60.991 25.1771C61.7674 25.0623 62.5601 25.2014 63.2511 25.5735C63.8723 25.9027 64.4245 26.4788 64.9209 26.9673" stroke="black" stroke-width="0.8" stroke-linejoin="round"/>
<g opacity="0.76">
<path opacity="0.76" d="M57.9785 29.8636L59.3644 33.7609L63.8776 34.6476L66.3174 28.6503C66.3174 28.6503 61.3847 26.3911 57.9785 29.8636Z" fill="#353642"/>
<path opacity="0.76" d="M56.8359 30.088C56.8359 30.088 51.8503 26.8837 49.2539 29.5279L51.5582 34.4578L56.1776 33.8737L56.8359 30.088Z" fill="#353642"/>
</g>
<path d="M57.0011 29.4944C56.9135 29.6723 55.8144 36.0251 56.6321 36.5163C57.0887 36.7817 58.6709 36.0756 58.6709 36.0756" stroke="black" stroke-width="0.8" stroke-linejoin="round"/>
<path d="M40.9808 74.3208C40.9808 74.3208 50.2916 77.0394 57.2157 77.4324C59.9105 77.5996 62.2441 77.4058 63.5371 76.5668C68.7832 73.1765 70.7957 72.6083 73.8913 71.942C74.8719 71.7395 75.8924 71.8844 76.7778 72.3518C77.6633 72.8192 78.3586 73.5801 78.7446 74.504C79.2755 75.8075 79.1216 77.512 79.0101 78.8846C78.88 80.4935 78.6702 82.6015 77.7596 83.9741C76.9286 85.2246 75.54 85.8538 74.202 86.422C72.7417 87.0432 71.255 87.5848 69.7523 88.0999C67.0151 89.0344 64.2354 89.8654 61.4371 90.6008C60.1167 90.9548 58.7892 91.284 57.4547 91.5885C52.8759 92.6785 48.2277 93.4529 43.5428 93.9062C39.5471 94.254 35.3683 94.3761 31.4443 93.4416C28.6539 92.7858 25.7335 91.4132 24.5972 88.599C24.2469 87.6961 24.0721 86.7346 24.0822 85.7662C24.0822 76.5403 33.7859 69.6507 40.71 65.2542C45.5428 62.163 50.5663 59.3804 55.7502 56.923C57.0007 56.3283 58.2485 55.7601 59.5096 55.2265C60.3299 54.8681 61.153 54.5362 61.9733 54.2017C62.5583 53.9714 63.0383 53.5343 63.3222 52.9734C63.6061 52.4125 63.674 51.7669 63.5132 51.1591L61.7901 44.7607" stroke="black" stroke-width="0.8" stroke-linejoin="round"/>
<path d="M61.8145 37.876C61.8145 37.876 61.0442 40.354 58.3218 40.5001" stroke="black" stroke-width="0.8" stroke-linejoin="round"/>
<path d="M57.92 29.8712L59.3058 33.7685L63.819 34.6552L66.2588 28.6579C66.2588 28.6579 61.3261 26.3986 57.92 29.8712Z" stroke="black" stroke-width="0.8" stroke-linejoin="round"/>
<path d="M56.7783 30.0892C56.7783 30.0892 51.7927 26.8849 49.1989 29.5291L51.5033 34.459L56.1226 33.8749" stroke="black" stroke-width="0.8" stroke-linejoin="round"/>
<path d="M57.9199 29.8711C57.9199 29.8711 57.4477 29.0143 56.7793 30.0833" stroke="black" stroke-width="0.8" stroke-linejoin="round"/>
<path d="M74.8081 8.59766C74.8081 8.59766 78.6708 9.92504 77.8293 15.3089" stroke="black" stroke-width="0.8" stroke-linejoin="round"/>
<path d="M4.58653 240.941L176.597 240.941" stroke="black" stroke-width="0.8" stroke-linejoin="round"/>
<path d="M358.971 229.525L337.703 230.259H337.346L323.917 230.53C320.959 230.589 318.013 230.939 315.122 231.573C291.15 236.78 275.83 260.907 280.948 284.781C281.702 288.338 282.883 291.79 284.466 295.061L324.17 384.118L305.722 384.869C302.736 384.98 299.909 386.251 297.836 388.414C295.763 390.576 294.606 393.462 294.608 396.463V397.982H372.773L367.727 384.118L331.404 284.444" stroke="black" stroke-width="0.8" stroke-miterlimit="10"/>
<path d="M319.706 114.712C319.706 114.712 318.151 135.968 294.707 134.003C294.707 134.003 302.919 155.154 308.812 158.898L338.418 177.72L345.509 144.421L319.706 114.712Z" fill="#2E2E2E"/>
<path d="M294.608 194.741L232.57 284.974L164.156 285.211V283.952C164.157 281.014 165.27 278.186 167.268 276.04C169.265 273.894 172 272.59 174.919 272.391L193.795 271.127L248.841 171.314C251.44 166.454 255.015 162.188 259.34 158.786C263.665 155.384 268.646 152.921 273.967 151.552C279.289 150.183 284.835 149.939 290.256 150.833C295.676 151.728 300.853 153.742 305.458 156.75L305.931 157.059L337.615 177.178L315.133 231.595L286.588 206.44" fill="#F8F8F8"/>
<path d="M504.418 247.298C498.706 263.265 488.257 265.854 476.037 265.032C469.645 256.617 462.07 245.155 455.946 236.592C448.83 226.599 441.702 216.62 434.564 206.656C432.744 204.094 430.925 201.549 429.067 198.987V237.376C429.073 239.358 428.943 241.337 428.676 243.3C393.859 273.187 344.129 235.687 337.346 230.27C336.835 229.878 336.582 229.657 336.582 229.657C333.333 206.01 336.84 188.127 337.588 174.606C338.61 156.54 341.941 150.798 344.899 145.244L346.124 142.13C348.422 137.829 348.323 136.758 348.631 136.554L348.537 135.764C348.537 135.764 349.73 134.417 349.73 134.384C356.447 123.248 361.62 113.955 372.74 107.258C368.892 110.107 366.232 117.009 370.311 120.78C375.054 125.169 381.513 119.979 385.405 116.915C390.379 113.143 394.743 108.623 398.345 103.515C399.482 101.858 400.912 100.097 400.692 97.9936C408.75 97.8777 415.566 100.754 423.878 105.58C434.388 111.692 442.765 120.912 448.482 131.689L504.418 247.298Z" fill="#2E2E2E"/>
<path d="M403.996 76.1789V76.3335C403.996 79.555 402.721 82.6445 400.454 84.9225C398.186 87.2004 395.11 88.4802 391.902 88.4802C389.847 88.4894 387.825 87.9584 386.037 86.9397C385.523 86.6714 385.034 86.3573 384.575 86.0011C384.387 85.847 384.24 85.6496 384.144 85.4258C384.049 85.202 384.008 84.9583 384.027 84.7155C384.045 84.4726 384.121 84.2378 384.249 84.031C384.377 83.8242 384.553 83.6516 384.762 83.5276C387.241 82.0259 389.572 79.8395 390.407 77.1231C390.662 76.2892 390.748 75.4124 390.66 74.5446C390.587 73.4362 390.225 72.3665 389.611 71.443C388.996 70.5194 388.151 69.7745 387.159 69.2829C386.847 69.1641 386.522 69.0844 386.191 69.0455C385.257 68.8909 383.992 68.9075 383.707 69.5977C385.181 66.307 385.534 62.6202 384.713 59.1074C384.201 56.9276 383.201 54.8939 381.788 53.1611C381.809 53.7859 381.692 54.4075 381.445 54.9815C381.199 55.5556 380.829 56.0679 380.363 56.482C379.897 56.896 379.345 57.2015 378.748 57.3766C378.15 57.5518 377.522 57.5923 376.907 57.4952C372.13 56.9431 371.603 52.2722 371.603 52.2722C371.603 52.2722 371.57 52.3218 371.57 52.355C369.052 57.4124 362.95 57.0535 358.784 54.3702C357.308 53.4489 356.045 52.2216 355.079 50.7704C354.276 45.3044 359.108 40.4899 364.242 40.1642C364.633 36.7686 367.403 33.3179 370.767 33.3179C371.936 33.3146 373.085 33.6263 374.093 34.2206C375.102 34.8149 375.933 35.6701 376.5 36.6969C376.589 36.8576 376.668 37.0235 376.737 37.1938C378.265 35.3166 380.683 33.3289 383.08 33.3289C384.759 33.3314 386.396 33.859 387.764 34.8385C389.131 35.818 390.16 37.2008 390.71 38.7949C390.71 38.552 392.908 37.768 393.123 37.6907C394.015 37.4301 394.942 37.3036 395.871 37.3152C397.492 37.3579 399.076 37.8084 400.478 38.6254C401.88 39.4425 403.055 40.5999 403.897 41.9917C403.981 42.4765 404.022 42.9681 404.018 43.4603C404.019 44.9318 403.674 46.3828 403.012 47.6951C403.766 47.9765 404.46 48.4 405.056 48.9429C406.339 50.068 407.128 51.6546 407.255 53.3598C407.255 53.531 407.255 53.7021 407.255 53.8733C407.258 55.1622 406.875 56.4221 406.156 57.4897C406.947 57.7903 407.695 58.1931 408.382 58.6878C410.43 60.17 411.813 62.4042 412.23 64.9046C412.322 65.4519 412.368 66.006 412.367 66.561C412.367 68.9103 411.518 71.1798 409.979 72.9484C408.439 74.7171 406.314 75.8649 403.996 76.1789Z" fill="#353642"/>
<path d="M403.996 76.1789V76.3335C403.996 79.555 402.721 82.6445 400.454 84.9225C398.186 87.2004 395.11 88.4802 391.902 88.4802C389.847 88.4894 387.825 87.9584 386.037 86.9397C388.516 85.438 390.847 83.2516 391.683 80.5407C391.981 79.5293 392.044 78.4627 391.866 77.4231C391.689 76.3835 391.276 75.3986 390.66 74.5446C390.587 73.4362 390.225 72.3665 389.611 71.443C388.996 70.5194 388.151 69.7745 387.159 69.2829C386.847 69.1641 386.522 69.0844 386.191 69.0455C386.788 65.6595 386.269 62.1704 384.713 59.1074C384.201 56.9276 383.201 54.8939 381.788 53.1611C381.809 53.7859 381.692 54.4075 381.445 54.9815C381.199 55.5556 380.829 56.0679 380.363 56.482C379.897 56.896 379.345 57.2015 378.748 57.3766C378.15 57.5518 377.522 57.5923 376.907 57.4952C372.13 56.9431 371.603 52.2722 371.603 52.2722C371.603 52.2722 371.57 52.3218 371.57 52.355C369.052 57.4124 362.95 57.0535 358.784 54.3702C357.308 53.4489 356.045 52.2216 355.079 50.7704C354.276 45.3044 359.108 40.4899 364.242 40.1642C364.633 36.7686 367.403 33.3179 370.767 33.3179C371.936 33.3146 373.085 33.6263 374.093 34.2206C375.102 34.8149 375.933 35.6701 376.5 36.6969C376.589 36.8576 376.668 37.0235 376.737 37.1938C378.265 35.3166 380.683 33.3289 383.08 33.3289C384.759 33.3314 386.396 33.859 387.764 34.8385C389.131 35.818 390.16 37.2008 390.71 38.7949C390.71 38.552 392.908 37.768 393.123 37.6907C394.015 37.4301 394.942 37.3036 395.871 37.3152C397.492 37.3579 399.076 37.8084 400.478 38.6254C401.88 39.4425 403.055 40.5999 403.897 41.9917C403.981 42.4765 404.022 42.9681 404.018 43.4603C404.019 44.9318 403.674 46.3828 403.012 47.6951C403.766 47.9765 404.46 48.4 405.056 48.9429C404.894 49.6965 404.636 50.4259 404.287 51.1127C405.469 51.5629 406.501 52.3377 407.266 53.3488C407.266 53.5199 407.266 53.6911 407.266 53.8623C407.269 55.1511 406.886 56.411 406.167 57.4787C406.958 57.7793 407.706 58.182 408.393 58.6767C408.208 59.4634 407.886 60.211 407.442 60.8852C409.454 61.6329 411.154 63.0416 412.268 64.8826C412.361 65.4298 412.407 65.9839 412.406 66.5389C412.41 68.8978 411.558 71.1774 410.01 72.9516C408.462 74.7257 406.324 75.873 403.996 76.1789Z" fill="#353642"/>
<path d="M372.773 397.998H294.608V396.48C294.606 393.478 295.763 390.592 297.836 388.43C299.909 386.267 302.736 384.997 305.723 384.885L324.17 384.118H367.727L372.773 397.998Z" fill="#353642"/>
<path d="M232.57 284.974L164.156 284.803V283.284C164.154 280.281 165.312 277.395 167.386 275.232C169.46 273.07 172.288 271.8 175.276 271.69L193.723 270.933L241.706 271.701L232.57 284.974Z" fill="#353642"/>
<path d="M345.794 284.582H382.074C393.503 284.55 404.531 280.349 413.107 272.76C421.683 265.171 427.222 254.711 428.693 243.327C428.959 241.362 429.089 239.381 429.083 237.397V198.998" stroke="black" stroke-width="0.8" stroke-miterlimit="10"/>
<path d="M294.608 194.762L232.57 284.973" stroke="black" stroke-width="0.8" stroke-miterlimit="10"/>
<path d="M315.112 231.596L286.566 206.44" stroke="black" stroke-width="0.8" stroke-miterlimit="10"/>
<path d="M375.206 284.546L375.021 284.377" stroke="black" stroke-width="0.8" stroke-miterlimit="10"/>
<path d="M305.91 157.06L287.379 118.93" stroke="black" stroke-width="0.8" stroke-miterlimit="10"/>
<path d="M531.139 284.444C531.139 284.477 531.172 284.494 531.188 284.532H515.5" stroke="black" stroke-width="0.8" stroke-miterlimit="10"/>
<path d="M350.01 284.612C350.01 284.53 349.961 284.443 349.944 284.377" stroke="black" stroke-width="0.8" stroke-miterlimit="10"/>
<path d="M400.697 98.4962C406.522 98.3402 412.304 99.5343 417.595 101.986C429.933 107.756 440.202 117.202 447.008 129.039C454.506 142.174 460.575 156.347 467.237 169.896C475.585 186.924 483.944 203.944 492.314 220.956C496.345 229.168 500.376 237.382 504.407 245.597L512.96 262.995C514.718 265.901 517.195 268.302 520.15 269.962C523.103 271.617 526.427 272.487 529.808 272.491C533.195 272.491 536.512 273.463 539.368 275.293C542.223 277.123 544.498 279.735 545.925 282.821L546.672 284.445H526.042" stroke="black" stroke-width="0.8" stroke-miterlimit="10"/>
<path d="M337.708 230.27C335.284 214.656 335.795 198.937 337.021 183.235C339.22 155.171 347.718 127.051 370.503 108.898C371.091 108.428 371.684 107.965 372.3 107.534" stroke="black" stroke-width="0.8" stroke-miterlimit="10"/>
<path d="M394.096 135.764C393.667 152.294 407.711 169.045 407.711 169.045C407.711 169.045 407.744 169.079 407.744 169.095C414.868 179.033 421.981 189.001 429.083 198.998C430.919 201.56 432.739 204.105 434.58 206.661C441.722 216.636 448.85 226.615 455.963 236.597C462.042 245.188 467.776 254.204 474.169 262.652C475.818 264.816 477.5 266.936 479.27 269.001C481.529 271.651 483.86 274.671 486.613 276.808C489.367 278.945 492.561 280.938 495.408 283.191C497.794 285.202 499.837 287.591 501.455 290.263C503.225 293.3 503.412 296.734 504.924 299.771C507.573 305.137 514.12 304.248 516.363 299.125C519.474 292.019 512.674 276.653 512.674 276.653" stroke="black" stroke-width="0.8" stroke-miterlimit="10"/>
<path d="M602.213 284.532H515.5" stroke="black" stroke-width="0.8" stroke-miterlimit="10"/>
<path d="M337.593 177.178L305.931 157.059L305.459 156.75C300.853 153.742 295.676 151.728 290.256 150.833C284.835 149.939 279.289 150.183 273.968 151.552C268.646 152.921 263.665 155.384 259.34 158.786C255.015 162.188 251.44 166.454 248.841 171.314L193.795 271.127L174.908 272.391C171.989 272.59 169.255 273.894 167.257 276.04C165.259 278.186 164.147 281.014 164.145 283.952V285.211" stroke="black" stroke-width="0.8" stroke-miterlimit="10"/>
<path d="M279.508 88.9775C282.124 89.491 283.114 89.3198 285.005 89.6953C285.149 89.7178 285.297 89.6927 285.427 89.6235C285.556 89.5543 285.659 89.4449 285.721 89.3117C285.783 89.1785 285.8 89.0287 285.77 88.8848C285.74 88.7409 285.664 88.6107 285.554 88.5137L279.299 82.4404C277.586 80.9748 276.403 78.9812 275.935 76.7701L275.88 76.5493C276.095 75.7981 276.507 75.1187 277.073 74.5817C277.638 74.0448 278.337 73.6699 279.096 73.4961C280.425 73.2797 281.789 73.4562 283.02 74.004C285.06 74.8101 287.797 75.5279 290.403 76.4278C294.006 77.7036 297.034 80.2371 298.934 83.5668L299.176 83.9974C306.664 97.0689 315.233 109.486 324.791 121.116L345.13 146.221" stroke="black" stroke-width="0.8" stroke-miterlimit="10"/>
<path d="M282.756 121.502C281.59 121.502 280.455 121.126 279.517 120.431C278.58 119.735 277.888 118.756 277.545 117.637L272.312 101.432L267.695 86.1218L261.676 66.4112C261.442 65.6469 261.394 64.8377 261.535 64.0509C261.676 63.2641 262.002 62.5225 262.486 61.8879C262.97 61.2532 263.598 60.7439 264.317 60.4022C265.037 60.0606 265.827 59.8966 266.623 59.9238C267.651 59.954 268.646 60.3029 269.469 60.9226C270.293 61.5423 270.906 62.4026 271.224 63.3856L279.519 88.9763L287.956 114.324C288.223 115.148 288.291 116.023 288.156 116.878C288.021 117.734 287.686 118.545 287.179 119.245C286.671 119.945 286.006 120.515 285.237 120.907C284.469 121.299 283.618 121.503 282.756 121.502Z" fill="#353642"/>
<path d="M282.756 121.502C281.59 121.502 280.455 121.126 279.517 120.431C278.58 119.735 277.888 118.756 277.545 117.637L272.312 101.432L267.695 86.1218L261.676 66.4112C261.442 65.6469 261.394 64.8377 261.535 64.0509C261.676 63.2641 262.002 62.5225 262.486 61.8879C262.97 61.2532 263.598 60.7439 264.317 60.4022C265.037 60.0606 265.827 59.8966 266.623 59.9238V59.9238C267.651 59.954 268.646 60.3029 269.469 60.9226C270.293 61.5423 270.906 62.4026 271.224 63.3856L279.519 88.9763L287.956 114.324C288.223 115.148 288.291 116.023 288.156 116.878C288.021 117.734 287.686 118.545 287.179 119.245C286.671 119.945 286.006 120.515 285.237 120.907C284.469 121.299 283.618 121.503 282.756 121.502V121.502Z" stroke="black" stroke-width="0.8" stroke-miterlimit="10"/>
<path d="M261.368 96.6963C260.061 96.6433 258.794 96.2224 257.713 95.4816C257.122 95.0412 256.626 94.4864 256.253 93.85C255.88 93.2135 255.638 92.5084 255.541 91.7763C255.444 91.0442 255.495 90.3 255.689 89.5878C255.884 88.8756 256.218 88.2098 256.674 87.6299C257.492 86.6162 258.596 85.8735 259.84 85.4986C261.433 84.9735 263.155 84.9968 264.733 85.5648C266.413 86.2959 267.788 87.5897 268.625 89.2256" stroke="black" stroke-width="0.8" stroke-miterlimit="10"/>
<path d="M264.617 107.232C263.303 107.219 262.019 106.837 260.912 106.127C260.311 105.702 259.801 105.159 259.412 104.532C259.024 103.905 258.764 103.206 258.649 102.477C258.535 101.747 258.567 101.002 258.744 100.285C258.921 99.568 259.239 98.8941 259.68 98.3031C260.476 97.2684 261.565 96.4987 262.803 96.0945C264.378 95.5301 266.096 95.5106 267.684 96.0393C269.262 96.5914 270.818 97.5743 271.582 99.0375" stroke="black" stroke-width="0.8" stroke-miterlimit="10"/>
<path d="M274.599 108.556C273.655 107.299 272.315 106.401 270.797 106.01C269.279 105.619 267.673 105.757 266.244 106.402C265.155 106.873 264.23 107.659 263.589 108.661C263.236 109.23 263 109.865 262.895 110.528C262.79 111.19 262.818 111.867 262.978 112.519C263.138 113.171 263.426 113.783 263.825 114.321C264.225 114.859 264.727 115.311 265.304 115.65L266.051 116.054C266.051 116.054 270.537 117.864 278.018 118.731" stroke="black" stroke-width="0.8" stroke-miterlimit="10"/>
<path d="M324.532 284.631C326.605 284.631 347.921 284.631 350.01 284.631C358.376 284.598 366.792 284.582 375.208 284.565C416.874 284.46 458.694 284.394 496.689 284.377" stroke="black" stroke-width="0.8" stroke-miterlimit="10"/>
<path d="M515.445 284.362C528.132 284.362 535.184 284.362 546.645 284.362C565.334 284.395 582.177 284.445 596.458 284.516" stroke="black" stroke-width="0.8" stroke-miterlimit="10"/>
<path d="M107.494 285.438C108.495 285.438 185.341 285.096 280.937 284.803" stroke="black" stroke-width="0.8" stroke-miterlimit="10"/>
<path d="M400.698 97.9988C400.918 100.119 399.489 101.897 398.351 103.52C394.749 108.629 390.385 113.149 385.411 116.92C381.519 119.963 375.06 125.153 370.316 120.785C366.237 117.014 368.87 110.113 372.746 107.264L372.795 107.23" stroke="black" stroke-width="0.8" stroke-miterlimit="10"/>
<path d="M359.399 79.1057C357.797 79.3635 356.16 79.3092 354.579 78.9455C354.28 78.8719 354.004 78.7265 353.775 78.5218C353.545 78.317 353.368 78.0592 353.26 77.7705C353.152 77.4818 353.115 77.171 353.153 76.8649C353.192 76.5588 353.303 76.2666 353.479 76.0137C355.128 73.6892 356.777 71.3924 358.597 69.2059C358.878 68.9305 359.069 68.5765 359.147 68.19C359.147 68.19 359.075 60.9074 360.983 55.491" stroke="black" stroke-width="0.8" stroke-miterlimit="10"/>
<path d="M365.763 68.195C366.005 67.0397 365.408 65.9358 364.431 65.7294C363.453 65.523 362.464 66.2922 362.222 67.4475C361.981 68.6028 362.577 69.7067 363.555 69.9131C364.533 70.1195 365.522 69.3503 365.763 68.195Z" fill="black"/>
<path d="M400.698 98.4961C398.163 91.1138 396.998 87.3425 396.998 87.3425" stroke="black" stroke-width="0.8" stroke-linecap="round" stroke-linejoin="round"/>
<path d="M372.801 96.0278L372.762 121.503" stroke="black" stroke-width="0.8" stroke-miterlimit="10"/>
<path d="M356.871 79.2649C356.871 79.2649 358.641 93.9185 365.721 96.6958C372.801 99.473 379.832 90.9039 379.832 90.9039" stroke="black" stroke-width="0.8" stroke-linecap="round" stroke-linejoin="round"/>
<path d="M358.322 85.9289C359.239 86.5736 360.302 86.9784 361.414 87.1066C362.527 87.2348 365.947 87.1066 367.821 84.5774" stroke="black" stroke-width="0.8" stroke-linecap="round" stroke-linejoin="round"/>
<path d="M376.078 36.4924C376.08 35.3671 375.788 34.2609 375.231 33.2843C374.51 32.0292 373.398 31.0463 372.067 30.4864C370.736 29.9266 369.259 29.8205 367.862 30.1846C366.465 30.5486 365.226 31.3627 364.333 32.502C363.441 33.6414 362.946 35.0431 362.923 36.4924" stroke="black" stroke-width="0.8" stroke-miterlimit="10" stroke-linecap="round"/>
<path d="M372.443 46.2217C372.437 44.628 372.043 43.0602 371.295 41.6543C370.548 40.2485 369.47 39.0473 368.156 38.1552C361.559 33.6941 352.055 40.5072 353.941 48.1872C354.6 50.865 356.519 52.9244 358.778 54.3765C362.939 57.0598 369.046 57.4297 371.553 52.3668L371.591 52.2839C371.591 52.2839 372.141 56.9438 376.896 57.507C377.51 57.6019 378.138 57.56 378.735 57.3841C379.332 57.2082 379.883 56.9027 380.349 56.4892C380.815 56.0756 381.186 55.5642 381.433 54.9912C381.681 54.4181 381.8 53.7973 381.782 53.1728C385.559 57.772 386.119 64.2152 383.712 69.5984C384.146 68.6267 386.521 69.0076 387.164 69.2947C390.033 70.5701 391.319 74.1976 390.418 77.1238C389.577 79.8513 387.246 82.0211 384.778 83.5394C384.569 83.6622 384.393 83.834 384.264 84.0401C384.135 84.2461 384.058 84.4804 384.04 84.7229C384.021 84.9654 384.06 85.2088 384.156 85.4325C384.251 85.6562 384.398 85.8534 384.586 86.0074C386.378 87.3756 388.516 88.2139 390.757 88.428C392.998 88.6421 395.255 88.2235 397.272 87.2193C399.289 86.215 400.988 84.6651 402.175 82.744C403.363 80.8228 403.993 78.6068 403.995 76.3453V76.1907C406.134 75.9217 408.122 74.9407 409.642 73.4041C411.161 71.8676 412.124 69.8641 412.377 67.7135C412.63 65.5629 412.159 63.3891 411.038 61.5391C409.917 59.6891 408.212 58.2696 406.194 57.507C406.913 56.4394 407.296 55.1795 407.293 53.8906C407.293 52.1334 406.598 50.4482 405.361 49.2057C404.124 47.9632 402.446 47.2652 400.697 47.2652" stroke="black" stroke-width="0.8" stroke-linecap="round" stroke-linejoin="round"/>
<path d="M376.077 33.0859C377.556 31.0375 379.106 29.9001 381.811 29.9001C383.493 29.9013 385.132 30.4304 386.5 31.4134C387.868 32.3964 388.896 33.7842 389.44 35.3828C389.369 35.162 391.639 34.3448 391.865 34.2786C392.758 34.0192 393.684 33.8927 394.613 33.9031C397.106 33.9724 399.476 35.0046 401.23 36.7849C402.984 38.5651 403.986 40.9563 404.029 43.4605C404.028 44.9317 403.684 46.3821 403.023 47.6954" stroke="black" stroke-width="0.8" stroke-linecap="square" stroke-linejoin="round"/>
<path d="M403.996 76.1789V76.3335C403.996 79.555 402.721 82.6445 400.454 84.9225C398.186 87.2004 395.11 88.4802 391.902 88.4802C389.847 88.4894 387.825 87.9584 386.037 86.9397C385.523 86.6714 385.034 86.3573 384.575 86.0011C384.387 85.847 384.24 85.6496 384.144 85.4258C384.049 85.202 384.008 84.9583 384.027 84.7155C384.045 84.4726 384.121 84.2378 384.249 84.031C384.377 83.8242 384.553 83.6516 384.762 83.5276C387.241 82.0259 389.572 79.8395 390.407 77.1231C390.662 76.2892 390.748 75.4124 390.66 74.5446C390.587 73.4362 390.225 72.3665 389.611 71.443C388.996 70.5194 388.151 69.7745 387.159 69.2829C386.847 69.1641 386.522 69.0844 386.191 69.0455C385.257 68.8909 383.992 68.9075 383.707 69.5977C385.181 66.307 385.534 62.6202 384.713 59.1074C384.201 56.9276 383.201 54.8939 381.788 53.1611C381.809 53.7859 381.692 54.4075 381.445 54.9815C381.199 55.5556 380.829 56.0679 380.363 56.482C379.897 56.896 379.345 57.2015 378.748 57.3766C378.15 57.5518 377.522 57.5923 376.907 57.4952C372.13 56.9431 371.603 52.2722 371.603 52.2722C371.603 52.2722 371.57 52.3218 371.57 52.355C369.052 57.4124 362.95 57.0535 358.784 54.3702C357.308 53.4489 356.045 52.2216 355.079 50.7704C354.276 45.3044 359.108 40.4899 364.242 40.1642C364.633 36.7686 367.403 33.3179 370.767 33.3179C371.936 33.3146 373.085 33.6263 374.093 34.2206C375.102 34.8149 375.933 35.6701 376.5 36.6969C376.589 36.8576 376.668 37.0235 376.737 37.1938C378.265 35.3166 380.683 33.3289 383.08 33.3289C384.759 33.3314 386.396 33.859 387.764 34.8385C389.131 35.818 390.16 37.2008 390.71 38.7949C390.71 38.552 392.908 37.768 393.123 37.6907C394.015 37.4301 394.942 37.3036 395.871 37.3152C397.492 37.3579 399.076 37.8084 400.478 38.6254C401.88 39.4425 403.055 40.5999 403.897 41.9917C403.981 42.4765 404.022 42.9681 404.018 43.4603C404.019 44.9318 403.674 46.3828 403.012 47.6951C403.766 47.9765 404.46 48.4 405.056 48.9429C406.339 50.068 407.128 51.6546 407.255 53.3598C407.255 53.531 407.255 53.7021 407.255 53.8733C407.258 55.1622 406.875 56.4221 406.156 57.4897C406.947 57.7903 407.695 58.1931 408.382 58.6878C410.43 60.17 411.813 62.4042 412.23 64.9046C412.322 65.4519 412.368 66.006 412.367 66.561C412.367 68.9103 411.518 71.1798 409.979 72.9484C408.439 74.7171 406.314 75.8649 403.996 76.1789Z" fill="#353642"/>
<path d="M403.996 76.1789V76.3335C403.996 79.555 402.721 82.6445 400.454 84.9225C398.186 87.2004 395.11 88.4802 391.902 88.4802C389.847 88.4894 387.825 87.9584 386.037 86.9397C388.516 85.438 390.847 83.2516 391.683 80.5407C391.981 79.5293 392.044 78.4627 391.866 77.4231C391.689 76.3835 391.276 75.3986 390.66 74.5446C390.587 73.4362 390.225 72.3665 389.611 71.443C388.996 70.5194 388.151 69.7745 387.159 69.2829C386.847 69.1641 386.522 69.0844 386.191 69.0455C386.788 65.6595 386.269 62.1704 384.713 59.1074C384.201 56.9276 383.201 54.8939 381.788 53.1611C381.809 53.7859 381.692 54.4075 381.445 54.9815C381.199 55.5556 380.829 56.0679 380.363 56.482C379.897 56.896 379.345 57.2015 378.748 57.3766C378.15 57.5518 377.522 57.5923 376.907 57.4952C372.13 56.9431 371.603 52.2722 371.603 52.2722C371.603 52.2722 371.57 52.3218 371.57 52.355C369.052 57.4124 362.95 57.0535 358.784 54.3702C357.308 53.4489 356.045 52.2216 355.079 50.7704C354.276 45.3044 359.108 40.4899 364.242 40.1642C364.633 36.7686 367.403 33.3179 370.767 33.3179C371.936 33.3146 373.085 33.6263 374.093 34.2206C375.102 34.8149 375.933 35.6701 376.5 36.6969C376.589 36.8576 376.668 37.0235 376.737 37.1938C378.265 35.3166 380.683 33.3289 383.08 33.3289C384.759 33.3314 386.396 33.859 387.764 34.8385C389.131 35.818 390.16 37.2008 390.71 38.7949C390.71 38.552 392.908 37.768 393.123 37.6907C394.015 37.4301 394.942 37.3036 395.871 37.3152C397.492 37.3579 399.076 37.8084 400.478 38.6254C401.88 39.4425 403.055 40.5999 403.897 41.9917C403.981 42.4765 404.022 42.9681 404.018 43.4603C404.019 44.9318 403.674 46.3828 403.012 47.6951C403.766 47.9765 404.46 48.4 405.056 48.9429C404.894 49.6965 404.636 50.4259 404.287 51.1127C405.469 51.5629 406.501 52.3377 407.266 53.3488C407.266 53.5199 407.266 53.6911 407.266 53.8623C407.269 55.1511 406.886 56.411 406.167 57.4787C406.958 57.7793 407.706 58.182 408.393 58.6767C408.208 59.4634 407.886 60.211 407.442 60.8852C409.454 61.6329 411.154 63.0416 412.268 64.8826C412.361 65.4298 412.407 65.9839 412.406 66.5389C412.41 68.8978 411.558 71.1774 410.01 72.9516C408.462 74.7257 406.324 75.873 403.996 76.1789Z" fill="#353642"/>
<path d="M361.785 61.9487C361.785 61.9487 368.608 60.763 371.249 66.2146" stroke="black" stroke-width="0.8" stroke-miterlimit="10"/>
<path d="M359.399 79.1057C357.797 79.3635 356.16 79.3092 354.579 78.9455C354.28 78.8719 354.004 78.7265 353.775 78.5218C353.545 78.317 353.368 78.0592 353.26 77.7705C353.152 77.4818 353.115 77.171 353.153 76.8649C353.192 76.5588 353.303 76.2666 353.479 76.0137C355.128 73.6892 356.777 71.3924 358.597 69.2059C358.878 68.9305 359.069 68.5765 359.147 68.19C359.147 68.19 359.075 60.9074 360.983 55.491" stroke="black" stroke-width="0.8" stroke-miterlimit="10"/>
<path d="M365.763 68.195C366.005 67.0397 365.408 65.9358 364.431 65.7294C363.453 65.523 362.464 66.2922 362.222 67.4475C361.981 68.6028 362.577 69.7067 363.555 69.9131C364.533 70.1195 365.522 69.3503 365.763 68.195Z" fill="black"/>
<path d="M400.698 98.4961C398.163 91.1138 396.998 87.3425 396.998 87.3425" stroke="black" stroke-width="0.8" stroke-linecap="round" stroke-linejoin="round"/>
<path d="M372.801 96.0278L372.762 121.503" stroke="black" stroke-width="0.8" stroke-miterlimit="10"/>
<path d="M356.871 79.2649C356.871 79.2649 358.641 93.9185 365.721 96.6958C372.801 99.473 379.832 90.9039 379.832 90.9039" stroke="black" stroke-width="0.8" stroke-linecap="round" stroke-linejoin="round"/>
<path d="M376.078 36.4924C376.08 35.3671 375.788 34.2609 375.231 33.2843C374.51 32.0292 373.398 31.0463 372.067 30.4864C370.736 29.9266 369.259 29.8205 367.862 30.1846C366.465 30.5486 365.226 31.3627 364.333 32.502C363.441 33.6414 362.946 35.0431 362.923 36.4924" stroke="black" stroke-width="0.8" stroke-miterlimit="10" stroke-linecap="round"/>
<path d="M372.443 46.2217C372.437 44.628 372.043 43.0602 371.295 41.6543C370.548 40.2485 369.47 39.0473 368.156 38.1552C361.559 33.6941 352.055 40.5072 353.941 48.1872C354.6 50.865 356.519 52.9244 358.778 54.3765C362.939 57.0598 369.046 57.4297 371.553 52.3668L371.591 52.2839C371.591 52.2839 372.141 56.9438 376.896 57.507C377.51 57.6019 378.138 57.56 378.735 57.3841C379.332 57.2082 379.883 56.9027 380.349 56.4892C380.815 56.0756 381.186 55.5642 381.433 54.9912C381.681 54.4181 381.8 53.7973 381.782 53.1728C385.559 57.772 386.119 64.2152 383.712 69.5984C384.146 68.6267 386.521 69.0076 387.164 69.2947C390.033 70.5701 391.319 74.1976 390.418 77.1238C389.577 79.8513 387.246 82.0211 384.778 83.5394C384.569 83.6622 384.393 83.834 384.264 84.0401C384.135 84.2461 384.058 84.4804 384.04 84.7229C384.021 84.9654 384.06 85.2088 384.156 85.4325C384.251 85.6562 384.398 85.8534 384.586 86.0074C386.378 87.3756 388.516 88.2139 390.757 88.428C392.998 88.6421 395.255 88.2235 397.272 87.2193C399.289 86.215 400.988 84.6651 402.175 82.744C403.363 80.8228 403.993 78.6068 403.995 76.3453V76.1907C406.134 75.9217 408.122 74.9407 409.642 73.4041C411.161 71.8676 412.124 69.8641 412.377 67.7135C412.63 65.5629 412.159 63.3891 411.038 61.5391C409.917 59.6891 408.212 58.2696 406.194 57.507C406.913 56.4394 407.296 55.1795 407.293 53.8906C407.293 52.1334 406.598 50.4482 405.361 49.2057C404.124 47.9632 402.446 47.2652 400.697 47.2652" stroke="black" stroke-width="0.8" stroke-linecap="round" stroke-linejoin="round"/>
<path d="M376.077 33.0859C377.556 31.0375 379.106 29.9001 381.811 29.9001C383.493 29.9013 385.132 30.4304 386.5 31.4134C387.868 32.3964 388.896 33.7842 389.44 35.3828C389.369 35.162 391.639 34.3448 391.865 34.2786C392.758 34.0192 393.684 33.8927 394.613 33.9031C397.106 33.9724 399.476 35.0046 401.23 36.7849C402.984 38.5651 403.986 40.9563 404.029 43.4605C404.028 44.9317 403.684 46.3821 403.023 47.6954" stroke="black" stroke-width="0.8" stroke-linecap="square" stroke-linejoin="round"/>
</svg>
