<svg width="24" height="24" viewBox="0 0 24 24" fill="none" xmlns="http://www.w3.org/2000/svg">
<path fill-rule="evenodd" clip-rule="evenodd" d="M21.21 7.89979V16.0498C21.21 19.0698 19.32 21.1998 16.3 21.1998H7.65C4.63 21.1998 2.75 19.0698 2.75 16.0498V7.89979C2.75 4.87979 4.64 2.75079 7.65 2.75079H16.3C19.32 2.75079 21.21 4.87979 21.21 7.89979Z" stroke="#200E32" stroke-width="1.5" stroke-linecap="round" stroke-linejoin="round"/>
<path d="M5.28125 16.4321L6.81025 14.8191C7.36125 14.2371 8.28625 14.2341 8.84225 14.8111L9.72725 15.7141C10.3243 16.3231 11.3173 16.2791 11.8583 15.6201L14.0872 12.9091C14.7272 12.1301 15.9013 12.0821 16.6023 12.8051L18.6783 14.9471" stroke="#200E32" stroke-width="1.5" stroke-linecap="round" stroke-linejoin="round"/>
<path fill-rule="evenodd" clip-rule="evenodd" d="M10.3134 9.13419C10.3134 10.1022 9.5274 10.8882 8.5594 10.8882C7.5914 10.8882 6.8064 10.1022 6.8064 9.13419C6.8064 8.16619 7.5914 7.38019 8.5594 7.38019C9.5274 7.38019 10.3134 8.16619 10.3134 9.13419Z" stroke="#200E32" stroke-width="1.5" stroke-linecap="round" stroke-linejoin="round"/>
</svg>
