<svg width="24" height="24" viewBox="0 0 24 24" fill="none" xmlns="http://www.w3.org/2000/svg">
<path fill-rule="evenodd" clip-rule="evenodd" d="M12 2C17.5228 2 22 6.47716 22 12C22 17.5228 17.5228 22 12 22C6.47716 22 2 17.5228 2 12C2 6.47716 6.47716 2 12 2Z" stroke="#200E32" stroke-width="1.5" stroke-linecap="round" stroke-linejoin="round"/>
<path fill-rule="evenodd" clip-rule="evenodd" d="M15.0502 12.4669C14.3212 13.2529 12.3372 14.5829 11.3222 15.0099C11.1602 15.0779 10.7472 15.2219 10.6582 15.2239C10.4692 15.2299 10.2872 15.1239 10.1992 14.9539C10.1652 14.8879 10.0652 14.4569 10.0332 14.2649C9.93815 13.6809 9.88915 12.7739 9.89015 11.8619C9.88915 10.9049 9.94215 9.95489 10.0482 9.37689C10.0762 9.22089 10.1582 8.86189 10.1822 8.80389C10.2272 8.69589 10.3092 8.61089 10.4082 8.55789C10.4842 8.51689 10.5712 8.49489 10.6582 8.49789C10.7472 8.49989 11.1092 8.62689 11.2332 8.67589C12.2112 9.05589 14.2802 10.4339 15.0402 11.2439C15.1082 11.3169 15.2952 11.5129 15.3262 11.5529C15.3972 11.6429 15.4322 11.7519 15.4322 11.8619C15.4322 11.9639 15.4012 12.0679 15.3372 12.1549C15.3042 12.1999 15.1132 12.3999 15.0502 12.4669Z" stroke="#200E32" stroke-width="1.5" stroke-linecap="round" stroke-linejoin="round"/>
</svg>
