<svg width="24" height="24" viewBox="0 0 24 24" fill="none" xmlns="http://www.w3.org/2000/svg">
<path fill-rule="evenodd" clip-rule="evenodd" d="M9.87749 15.2062C6.03349 15.2062 2.75049 15.7872 2.75049 18.1152C2.75049 20.4422 6.01249 21.0452 9.87749 21.0452C13.7215 21.0452 17.0045 20.4632 17.0045 18.1362C17.0045 15.8092 13.7425 15.2062 9.87749 15.2062Z" stroke="#200E32" stroke-width="1.5" stroke-linecap="round" stroke-linejoin="round"/>
<path fill-rule="evenodd" clip-rule="evenodd" d="M9.87757 11.8859C12.4136 11.8859 14.4456 9.85288 14.4456 7.31788C14.4456 4.78188 12.4136 2.74988 9.87757 2.74988C7.34257 2.74988 5.30957 4.78188 5.30957 7.31788C5.30957 9.85288 7.34257 11.8859 9.87757 11.8859Z" stroke="#200E32" stroke-width="1.5" stroke-linecap="round" stroke-linejoin="round"/>
<path d="M19.2041 8.66907V12.6791" stroke="#200E32" stroke-width="1.5" stroke-linecap="round" stroke-linejoin="round"/>
<path d="M21.2502 10.674H17.1602" stroke="#200E32" stroke-width="1.5" stroke-linecap="round" stroke-linejoin="round"/>
</svg>
