<svg width="24" height="24" viewBox="0 0 24 24" fill="none" xmlns="http://www.w3.org/2000/svg">
<path d="M11.2502 16.2696C11.2502 15.8556 11.5862 15.5136 12.0002 15.5136C12.4142 15.5136 12.7502 15.8446 12.7502 16.2586V16.2696C12.7502 16.6836 12.4142 17.0196 12.0002 17.0196C11.5862 17.0196 11.2502 16.6836 11.2502 16.2696Z" fill="#200E32"/>
<path d="M4.7956 20.4179H19.2776C20.4246 20.3579 21.3066 19.3809 21.2476 18.2339C21.2346 18.0019 21.1846 17.7729 21.0966 17.5589L13.8196 4.82292C13.2636 3.81792 11.9986 3.45392 10.9936 4.01092C10.6516 4.19892 10.3696 4.48092 10.1806 4.82292L2.9036 17.5589C2.4716 18.6229 2.9836 19.8349 4.0466 20.2679C4.2626 20.3549 4.4906 20.4049 4.7226 20.4179" stroke="#200E32" stroke-width="1.5" stroke-linecap="round" stroke-linejoin="round"/>
<path d="M11.9897 13.3961V10.2961" stroke="#200E32" stroke-width="1.5" stroke-linecap="round" stroke-linejoin="round"/>
</svg>
