<svg width="24" height="24" viewBox="0 0 24 24" fill="none" xmlns="http://www.w3.org/2000/svg">
<path d="M4.79438 7.05581C4.79438 5.80681 5.80738 4.79381 7.05538 4.79381H8.08438C8.68038 4.79381 9.25338 4.55781 9.67738 4.13681L10.3964 3.41681C11.2774 2.53181 12.7094 2.52781 13.5944 3.40881L13.6034 3.41681L14.3234 4.13681C14.7464 4.55781 15.3194 4.79381 15.9164 4.79381H16.9444C18.1934 4.79381 19.2064 5.80681 19.2064 7.05581V8.08281C19.2064 8.68081 19.4424 9.25281 19.8634 9.67681L20.5834 10.3968C21.4684 11.2778 21.4734 12.7088 20.5924 13.5948L20.5834 13.6038L19.8634 14.3238C19.4424 14.7458 19.2064 15.3198 19.2064 15.9158V16.9448C19.2064 18.1938 18.1934 19.2058 16.9444 19.2058H15.9164C15.3194 19.2058 14.7464 19.4428 14.3234 19.8638L13.6034 20.5828C12.7234 21.4688 11.2914 21.4728 10.4054 20.5918C10.4024 20.5888 10.3994 20.5858 10.3964 20.5828L9.67738 19.8638C9.25338 19.4428 8.68038 19.2058 8.08438 19.2058H7.05538C5.80738 19.2058 4.79438 18.1938 4.79438 16.9448V15.9158C4.79438 15.3198 4.55738 14.7458 4.13638 14.3238L3.41738 13.6038C2.53138 12.7228 2.52738 11.2908 3.40838 10.4058L3.41738 10.3968L4.13638 9.67681C4.55738 9.25281 4.79438 8.68081 4.79438 8.08281V7.05581" stroke="#200E32" stroke-width="1.5" stroke-linecap="round" stroke-linejoin="round"/>
<path d="M9.43018 14.5695L14.5702 9.4295" stroke="#200E32" stroke-width="1.5" stroke-linecap="round" stroke-linejoin="round"/>
<path d="M14.5669 15.3224C14.3669 15.3224 14.1769 15.2424 14.0369 15.1024C13.9669 15.0324 13.9169 14.9424 13.8769 14.8524C13.8369 14.7624 13.8169 14.6734 13.8169 14.5724C13.8169 14.4724 13.8369 14.3724 13.8769 14.2824C13.9169 14.1924 13.9669 14.1124 14.0369 14.0424C14.3169 13.7624 14.8169 13.7624 15.0969 14.0424C15.1669 14.1124 15.2269 14.1924 15.2669 14.2824C15.2969 14.3724 15.3169 14.4724 15.3169 14.5724C15.3169 14.6734 15.2969 14.7624 15.2669 14.8524C15.2269 14.9424 15.1669 15.0324 15.0969 15.1024C14.9569 15.2424 14.7669 15.3224 14.5669 15.3224Z" fill="#200E32"/>
<path d="M9.42676 10.1828C9.32676 10.1828 9.23676 10.1618 9.14676 10.1218C9.05676 10.0818 8.96676 10.0328 8.89676 9.96283C8.82676 9.88283 8.77676 9.80283 8.73676 9.71283C8.69676 9.62183 8.67676 9.53283 8.67676 9.43283C8.67676 9.33183 8.69676 9.23283 8.73676 9.14283C8.77676 9.05283 8.82676 8.96283 8.89676 8.90283C9.18676 8.62183 9.67676 8.62183 9.95676 8.90283C10.0968 9.04183 10.1768 9.23283 10.1768 9.43283C10.1768 9.53283 10.1668 9.62183 10.1268 9.71283C10.0868 9.80283 10.0268 9.88283 9.95676 9.96283C9.88676 10.0328 9.80676 10.0818 9.71676 10.1218C9.62676 10.1618 9.52676 10.1828 9.42676 10.1828Z" fill="#200E32"/>
</svg>
