<svg width="24" height="24" viewBox="0 0 24 24" fill="none" xmlns="http://www.w3.org/2000/svg">
<path fill-rule="evenodd" clip-rule="evenodd" d="M12.4715 17.1419C12.4 17.7277 12.3789 18.3042 12.2191 18.9005C11.9645 19.7505 11.2987 20.2704 10.5803 20.2494C10.2395 20.2578 9.75986 20.0503 9.43694 19.7788L5.67029 16.7195H3.57187C2.55999 16.7195 1.8784 16.0299 1.74061 14.8938C1.54391 13.4956 1.56285 10.9698 1.74061 9.54336C1.8784 8.55817 2.55999 7.78156 3.57187 7.78156H5.67029L9.35911 4.77464C9.68202 4.5011 10.2395 4.24327 10.5803 4.25061C11.2987 4.22965 11.9645 4.75054 12.2191 5.59948C12.3611 6.14237 12.4 6.77331 12.4715 7.35918C12.643 8.72901 12.643 15.772 12.4715 17.1419Z" stroke="#200E32" stroke-width="1.5" stroke-linecap="round" stroke-linejoin="round"/>
<path d="M16.4436 7.06049C17.3516 8.36649 17.8966 10.1185 17.8966 12.0685C17.8966 14.0185 17.3516 15.7695 16.4436 17.0755" stroke="#200E32" stroke-width="1.5" stroke-linecap="round" stroke-linejoin="round"/>
<path d="M19.8745 4C21.3375 6.104 22.2155 8.926 22.2155 12.068C22.2155 15.21 21.3375 18.033 19.8745 20.137" stroke="#200E32" stroke-width="1.5" stroke-linecap="round" stroke-linejoin="round"/>
</svg>
