<svg width="24" height="24" viewBox="0 0 24 24" fill="none" xmlns="http://www.w3.org/2000/svg">
<path fill-rule="evenodd" clip-rule="evenodd" d="M7.48638 21.5H15.8342C18.9006 21.5 21.253 20.3925 20.5848 15.9348L19.8067 9.89363C19.3948 7.66937 17.9761 6.81812 16.7312 6.81812H6.55274C5.28958 6.81812 3.9532 7.73345 3.47723 9.89363L2.69919 15.9348C2.13169 19.8891 4.42002 21.5 7.48638 21.5Z" stroke="#200E32" stroke-width="1.5" stroke-linecap="round" stroke-linejoin="round"/>
<path d="M7.34902 6.59842C7.34902 4.21235 9.28331 2.27805 11.6694 2.27805V2.27805C12.8184 2.27319 13.922 2.72622 14.7362 3.53697C15.5504 4.34772 16.0081 5.44941 16.0081 6.59842V6.59842" stroke="#200E32" stroke-width="1.5" stroke-linecap="round" stroke-linejoin="round"/>
<path d="M8.70378 11.1018H8.74954" stroke="#200E32" stroke-width="1.5" stroke-linecap="round" stroke-linejoin="round"/>
<path d="M14.5343 11.1018H14.5801" stroke="#200E32" stroke-width="1.5" stroke-linecap="round" stroke-linejoin="round"/>
</svg>
