<svg width="24" height="24" viewBox="0 0 24 24" fill="none" xmlns="http://www.w3.org/2000/svg">
<path d="M7.89083 16.3826H5.77847C4.76094 16.3826 4.07483 15.6869 3.93612 14.5392C3.73812 13.1267 3.75718 10.5749 3.93612 9.13281C4.07483 8.13752 4.76094 7.35399 5.77847 7.35399H7.89083L11.6041 4.31622C11.9292 4.03987 12.4914 3.7794 12.8334 3.78681C13.5566 3.76458 14.2268 4.29081 14.4841 5.14952C14.626 5.69693 14.6652 6.3354 14.7372 6.92622C14.8092 7.50116 14.8515 7.44928 14.8632 9.18258" stroke="#200E32" stroke-width="1.5" stroke-linecap="round" stroke-linejoin="round"/>
<path d="M14.86 14.1914C14.8409 15.5276 14.7954 16.3408 14.7372 16.8099C14.6652 17.4007 14.644 17.9841 14.4841 18.5855C14.2268 19.4453 13.5566 19.9705 12.8334 19.9482C12.4914 19.9567 12.0075 19.7481 11.6825 19.4728L10.2859 18.3335" stroke="#200E32" stroke-width="1.5" stroke-linecap="round" stroke-linejoin="round"/>
<path d="M20.9958 3.29401L3.84814 20.4417" stroke="#200E32" stroke-width="1.5" stroke-linecap="round" stroke-linejoin="round"/>
</svg>
