<svg width="420" height="500" viewBox="0 0 420 500" fill="none" xmlns="http://www.w3.org/2000/svg">
<g opacity="0.9">
<path d="M285.944 116.008C285.995 116.011 286.046 116.022 286.094 116.04" stroke="#CCDDE2" stroke-width="0.8" stroke-miterlimit="10"/>
<path d="M174.229 237.099C178.742 301.147 241.477 301.2 242.532 300.489C242.532 300.489 238.469 304.891 263.184 284.544C287.899 264.198 298.046 233.99 298.046 233.99C308.447 238.99 327.574 236.41 327.574 236.41C339.929 232.564 350.273 224.498 358.177 216.299C347.274 202.469 349.389 191.892 350.211 189.211C339.841 193.58 327.982 198.206 323.139 198.746C313.746 199.787 314.594 186.006 314.594 186.006C306.178 133.043 276.448 130.356 276.448 130.356C244.243 126.51 225.576 140.858 210.032 176.829C194.488 212.8 174.229 237.099 174.229 237.099Z" fill="#2E2E2E"/>
<path d="M234.312 441.442H290.871C291.978 440.848 292.86 439.886 293.375 438.712C293.89 437.537 294.008 436.218 293.709 434.966C293.411 433.714 292.714 432.603 291.731 431.809C290.747 431.016 289.534 430.588 288.286 430.593H274.561C274.561 430.593 275.109 430.181 276.112 429.385H243.938C239.177 435.438 235.636 439.807 234.312 441.442Z" fill="#353642"/>
<path d="M29.7383 351.102L32.4005 381.849C32.4264 382.041 32.4574 382.223 32.4832 382.431C33.2225 388.564 36.4585 388.633 36.4585 388.633L33.5533 395.155L33.7963 397.928V414.097C33.7959 415.267 33.4678 416.411 32.8515 417.393C32.2352 418.374 31.3572 419.15 30.3234 419.627C29.2896 420.103 28.1444 420.261 27.026 420.079C25.9075 419.898 24.8638 419.386 24.0209 418.605C22.9404 417.616 22.258 416.243 22.1083 414.759C20.8728 402.847 18.0141 375.407 18.0141 375.407C16.8923 369.627 26.7452 354.585 29.7383 351.102Z" fill="#353642"/>
<path d="M229.521 308.219C258.604 333.325 294.851 338.304 291.212 355.002C287.47 372.095 259.405 409.648 243.923 429.374C239.198 435.443 235.651 439.802 234.307 441.409C233.966 441.869 233.79 442.088 233.79 442.088H288.286C289.198 442.093 290.096 441.86 290.897 441.409C291.991 440.808 292.86 439.845 293.364 438.674C293.868 437.504 293.978 436.193 293.678 434.95C293.378 433.707 292.684 432.603 291.707 431.815C290.73 431.026 289.526 430.598 288.286 430.598H274.556L276.107 429.374C286.591 421.052 346.928 371.187 340.833 331.984C338.145 314.624 324.353 298.08 308.866 284.523C301.213 277.89 293.166 271.758 284.771 266.164C283.706 265.453 282.672 264.759 281.67 264.096" stroke="black" stroke-width="0.8" stroke-miterlimit="10"/>
<path d="M378.679 193.687V442.675C378.679 443.844 379.128 444.965 379.928 445.792C380.727 446.618 381.812 447.082 382.943 447.082C384.074 447.082 385.159 446.618 385.959 445.792C386.759 444.965 387.208 443.844 387.208 442.675V193.687C387.206 192.816 386.954 191.965 386.485 191.242C386.016 190.518 385.349 189.955 384.571 189.622C383.792 189.289 382.935 189.201 382.108 189.371C381.281 189.54 380.521 189.958 379.924 190.573C379.527 190.98 379.212 191.466 378.998 192C378.784 192.535 378.675 193.109 378.679 193.687V193.687Z" stroke="black" stroke-width="0.8" stroke-miterlimit="10"/>
<path d="M357.727 442.093C357.724 447.061 359.096 451.926 361.68 456.115C364.264 460.304 367.953 463.643 372.312 465.738C376.671 467.833 381.519 468.597 386.284 467.94C391.049 467.283 395.533 465.232 399.208 462.03C402.883 458.827 405.596 454.606 407.027 449.863C408.458 445.121 408.547 440.054 407.284 435.261C406.022 430.468 403.46 426.147 399.9 422.809C396.34 419.47 391.931 417.252 387.192 416.416V442.676C387.192 443.844 386.743 444.965 385.943 445.792C385.144 446.618 384.059 447.083 382.928 447.083C381.797 447.083 380.712 446.618 379.912 445.792C379.112 444.965 378.663 443.844 378.663 442.676V416.416C372.802 417.456 367.487 420.603 363.655 425.302C359.824 430.001 357.724 435.949 357.727 442.093V442.093Z" stroke="black" stroke-width="0.8" stroke-miterlimit="10"/>
<path d="M169.948 468.155C156.018 468.155 144.726 456.487 144.726 442.093C144.726 427.699 156.018 416.031 169.948 416.031C183.877 416.031 195.169 427.699 195.169 442.093C195.169 456.487 183.877 468.155 169.948 468.155Z" stroke="black" stroke-width="0.8" stroke-miterlimit="10"/>
<path d="M252.203 170.109C255.977 196.363 272.131 227.009 297.922 234.84C299.848 235.426 301.81 235.879 303.794 236.197C306.363 236.61 308.951 236.882 311.548 237.014C343.831 238.616 358.838 216.01 369.699 201.331C374.553 194.724 378.59 189.74 382.953 189.28" stroke="black" stroke-width="0.8" stroke-miterlimit="10"/>
<path d="M387.203 193.688V195.653C387.184 197.048 387.627 198.408 388.459 199.506C389.292 200.604 390.463 201.375 391.778 201.689C392.626 201.878 393.504 201.869 394.348 201.661C395.192 201.454 395.981 201.053 396.655 200.49C397.33 199.926 397.874 199.214 398.248 198.405C398.621 197.595 398.814 196.71 398.813 195.814V194.307C398.813 188.848 396.503 183.319 392.352 179.885C384.872 173.667 374.853 178.581 367.208 181.765C364.794 182.785 362.385 183.768 359.971 184.751C349.771 188.885 339.469 192.801 329.202 196.786L325.413 198.26C324.395 198.667 323.301 198.831 322.213 198.739C321.124 198.647 320.07 198.302 319.13 197.73C318.189 197.157 317.386 196.372 316.78 195.434C316.174 194.495 315.782 193.427 315.633 192.309C314.976 187.651 314.123 182.694 312.96 177.7C308.121 156.782 298.098 134.966 276.495 130.356L276.366 130.324C249.335 124.678 224.238 143.16 213.847 168.026C204.857 189.569 193.883 210.386 180.205 229.162C154.776 264.065 133.339 278.69 97.3493 299C72.3191 313.134 47.3353 330.516 28.2292 352.694C25.2258 356.188 16.8565 369.628 18.0093 375.407C18.0093 375.407 20.8628 402.848 22.0931 414.765C22.2475 416.313 22.9726 417.741 24.118 418.751C25.2635 419.762 26.7414 420.278 28.2452 420.193C29.7491 420.108 31.1635 419.427 32.1952 418.294C33.2268 417.16 33.7966 415.659 33.7863 414.103V397.933C33.7833 396.814 33.91 395.699 34.1637 394.611C36.7897 382.202 53.2905 370.44 61.9027 364.457C79.0238 352.59 97.8545 343.597 117.696 337.812C133.67 333.133 149.664 332.166 165.901 329.543C167 329.373 168.1 329.194 169.199 329.009C189.949 325.27 210.683 318.379 229.515 308.246C249.852 297.312 267.997 282.606 281.644 264.123C288.289 255.152 293.76 245.316 297.917 234.867V234.867" stroke="black" stroke-width="0.8" stroke-miterlimit="10"/>
<path d="M357.722 442.094H248.353H195.046" stroke="black" stroke-width="0.8" stroke-miterlimit="10"/>
<path d="M169.824 447.071C167.472 447.071 165.565 445.101 165.565 442.67C165.565 440.239 167.472 438.268 169.824 438.268C172.177 438.268 174.084 440.239 174.084 442.67C174.084 445.101 172.177 447.071 169.824 447.071Z" stroke="black" stroke-width="0.8" stroke-miterlimit="10"/>
<path d="M144.727 442.094H137.304C137.304 433.148 140.743 424.57 146.864 418.245C152.985 411.919 161.287 408.366 169.943 408.366C178.6 408.366 186.902 411.919 193.023 418.245C199.144 424.57 202.583 433.148 202.583 442.094" stroke="black" stroke-width="0.8" stroke-miterlimit="10"/>
<path d="M415.588 442.093C415.591 433.91 412.713 426.005 407.491 419.853C402.269 413.701 395.06 409.723 387.208 408.659" stroke="black" stroke-width="0.8" stroke-miterlimit="10"/>
<path d="M378.678 408.659C370.83 409.726 363.624 413.707 358.406 419.858C353.189 426.01 350.314 433.913 350.319 442.093H357.727" stroke="black" stroke-width="0.8" stroke-miterlimit="10"/>
<path d="M306.937 75.0746C304.844 77.3235 301.432 77.6707 298.584 77.5852C294.965 77.4837 291.305 76.8267 287.728 76.3032L285.572 76.3353H285.541C285.127 76.3631 284.723 76.4751 284.351 76.6647C283.979 76.8544 283.647 77.1181 283.373 77.4406C283.1 77.7632 282.891 78.1382 282.758 78.5444C282.626 78.9505 282.572 79.3797 282.6 79.8074C282.856 84.6074 283.624 89.3636 284.89 93.9897L280.915 96.5804C280.284 95.074 280.744 92.8412 279.467 92.745C278.557 91.2387 277.286 90.3039 275.471 91.5966C271.915 94.1232 270.881 100.897 274.644 103.712L272.638 108.289C271.196 111.601 265.22 113.177 261.809 112.36C262.987 109.096 266.27 107.072 266.27 107.072C260.852 108.45 256.567 101.644 257.963 97.2107C258.909 94.1713 258.707 91.869 256.991 89.0913C256.877 88.9043 257.895 88.5571 257.792 88.3755C257.606 86.2709 258.03 83.9633 258.945 82.8148C260.552 80.7689 264.021 80.176 263.122 77.3075C262.724 76.0559 262.524 74.7466 262.527 73.4294C262.605 71.7012 263.04 70.0103 263.803 68.4705C264.566 66.9308 265.64 65.578 266.952 64.5034C269.713 62.3667 273.057 63.8998 276.138 63.638C279.881 63.3442 282.341 59.8988 286.275 59.5623C288.229 59.3967 289.853 60.0964 291.579 60.9404C293.032 61.6723 294.464 62.4522 295.865 63.3015C297.266 64.1508 298.501 64.904 300.098 64.7811C302.166 64.669 304.105 63.1786 306.24 63.6594C307.31 63.8856 308.275 64.4785 308.979 65.342C309.905 68.6485 308.964 72.9006 306.937 75.0746Z" fill="#353642"/>
<path d="M280.894 96.11C280.806 95.8536 280.718 95.6079 280.615 95.3301V95.298C280.326 94.4198 279.954 93.5735 279.503 92.7714C278.583 91.265 277.322 90.3302 275.497 91.6176C271.935 94.1496 270.912 100.923 274.665 103.749L272.664 108.316C272.592 108.486 272.508 108.65 272.411 108.807C271.3 110.8 268.88 112.226 266.135 112.376H266.089C265.098 112.426 264.106 112.307 263.153 112.023" stroke="black" stroke-width="0.8" stroke-linecap="round" stroke-linejoin="round"/>
<path d="M302.761 85.3144C302.761 85.3144 295.787 84.0217 293.135 89.5877" stroke="black" stroke-width="0.8" stroke-miterlimit="10"/>
<path d="M301.788 101.495C303.675 101.89 306.193 102.194 307.506 100.426L303.97 93.8773C303.109 92.2728 302.803 90.4134 303.102 88.605C303.587 85.5656 304.994 80.8969 302.926 77.0723" stroke="black" stroke-width="0.8" stroke-miterlimit="10"/>
<path d="M296.579 92.7684C296.002 91.9115 296.323 90.6481 297.298 89.9466C298.272 89.2452 299.531 89.3712 300.108 90.2281C300.686 91.0851 300.364 92.3484 299.39 93.0499C298.415 93.7514 297.157 93.6253 296.579 92.7684Z" fill="black"/>
<path d="M285.531 133.561L285.944 115.757" stroke="black" stroke-width="0.8" stroke-miterlimit="10"/>
<path d="M280.94 96.5964C280.94 96.4308 280.904 96.2652 280.894 96.0996C280.884 95.934 280.847 95.7524 280.842 95.5654" stroke="black" stroke-width="0.8" stroke-linecap="round" stroke-linejoin="round"/>
<path d="M280.941 96.5966L282.305 95.7152L284.916 94.0059" stroke="black" stroke-width="0.8" stroke-linecap="round" stroke-linejoin="round"/>
<path d="M292.716 102.6C292.716 102.6 293.155 107.317 298.511 108.909" stroke="black" stroke-width="0.8" stroke-miterlimit="10"/>
<path d="M266.295 107.087C260.878 108.465 256.592 101.66 257.988 97.2265C258.934 94.1871 258.732 91.8848 257.016 89.1071C256.902 88.9201 256.804 88.7332 256.706 88.5729C256.07 87.4202 255.783 86.0965 255.884 84.7736C255.984 83.4507 256.467 82.1894 257.269 81.1533C258.82 78.9632 261.312 78.0604 260.371 75.0904C259.957 73.8019 259.748 72.4526 259.751 71.0948C259.831 69.3129 260.28 67.5695 261.068 65.9825C261.857 64.3956 262.966 63.0021 264.321 61.8964C267.159 59.6582 270.617 61.2768 273.806 61.0097C277.647 60.6892 280.211 57.1156 284.243 56.7897C286.254 56.6295 287.94 57.3239 289.718 58.2106C291.217 58.9745 292.701 59.7811 294.127 60.6518C295.554 61.5225 296.862 62.2863 298.506 62.1795C300.656 62.0513 302.641 60.5129 304.828 61.0204C307.015 61.5278 308.41 63.2585 308.964 65.3578C309.863 68.6483 308.922 72.9003 306.896 75.0744C304.869 77.2485 301.39 77.6705 298.542 77.585C294.923 77.4835 291.263 76.8265 287.686 76.303L285.531 76.3351H285.5C284.671 76.402 283.901 76.8044 283.358 77.4546C282.815 78.1048 282.543 78.9503 282.6 79.8072C282.856 84.6072 283.624 89.3634 284.89 93.9894" stroke="black" stroke-width="0.8" stroke-miterlimit="10"/>
<path d="M281.049 111.291C281.049 111.291 289.941 121.974 297.044 118.946C304.146 115.917 303.629 102.018 303.629 102.018" stroke="black" stroke-width="0.8" stroke-linecap="round" stroke-linejoin="round"/>
<path d="M358.647 215.839L358.202 216.299C358.487 216.683 358.797 217.063 359.123 217.447L358.647 215.839Z" fill="#2E2E2E"/>
<path d="M350.252 189.211L350.624 189.056L350.474 188.522C350.384 188.746 350.31 188.976 350.252 189.211Z" fill="#2E2E2E"/>
<path d="M382.948 468.15H93.2652" stroke="black" stroke-width="0.8" stroke-miterlimit="10"/>
<path d="M265.577 107.221L253.3 131.531" stroke="black" stroke-width="0.8" stroke-linecap="round" stroke-linejoin="round"/>
<path d="M118.414 278.834C118.414 278.834 70.0388 300.335 60.3151 313.636" stroke="black" stroke-width="0.8" stroke-miterlimit="10"/>
<path d="M127.156 441.415H106.38" stroke="black" stroke-width="0.8" stroke-miterlimit="10"/>
<path d="M116.771 435.4H85.6042" stroke="black" stroke-width="0.8" stroke-miterlimit="10"/>
</g>
<path d="M79.6317 482.845C72.8501 483.441 66.0665 484.031 59.2809 484.615C57.6752 484.744 56.1762 485.496 55.0852 486.721C53.9942 487.945 53.3922 489.551 53.4 491.215C53.4 492.082 53.5654 492.941 53.8869 493.741C54.2083 494.542 54.6794 495.27 55.2732 495.882C55.867 496.495 56.5719 496.98 57.3474 497.311C58.123 497.641 58.9541 497.811 59.7931 497.809L114.034 497.748C114.249 497.748 114.46 497.697 114.653 497.598C114.845 497.499 115.012 497.356 115.141 497.179C115.271 497.002 115.359 496.797 115.399 496.579C115.438 496.361 115.429 496.137 115.371 495.923C102.685 448.079 95.7787 398.797 94.808 349.2C91.2825 333.996 113.833 262.835 105.912 248.967C99.2979 237.387 62.6001 280.615 55.2732 289.267C39.1718 308.28 64.8033 426.241 79.6317 482.845Z" fill="#F8F8F8"/>
<path d="M215.178 128.077C215.178 128.077 246.508 184.284 234.24 210.15C234.24 210.15 225.227 228.32 205.282 226.513C185.338 224.706 195.522 183.189 177.579 172.197C159.636 161.205 187.739 115.625 188.016 115.984C188.293 116.343 215.178 128.077 215.178 128.077Z" fill="#F8F8F8"/>
<path d="M217.686 133.497C187.216 128.284 178.833 159.143 178.833 159.143C178.833 159.143 187.769 176.93 187.993 177.897C188.758 188.597 179.221 189.187 179.221 189.187L145.537 196.487L131.756 174.15C131.756 174.15 121.495 102.692 118.805 102.735C116.115 102.777 117.628 101.634 117.628 101.634C120.277 99.4135 118.887 88.9628 118.887 88.9628C118.499 84.4978 125.728 82.8189 133.116 80.5378C140.504 78.2566 136.86 82.9284 135.624 88.9628C134.387 94.9972 133.039 108.429 147.762 109.682C162.485 110.935 163.798 103.854 167.465 97.5156C169.997 93.1419 168.737 87.2352 167.724 84.0051C174.628 86.4864 181.264 89.6992 187.528 93.592C188.505 94.2003 189.441 94.8086 190.365 95.5082C203.599 104.888 211.069 118.77 217.686 133.497Z" fill="#2E2E2E"/>
<path d="M53.1083 224.712C53.1083 224.712 51.7485 225.467 56.3167 225.497C60.8848 225.528 113.225 221.592 154.68 244.616C154.68 244.616 167.331 251.308 171.981 261.479C171.981 261.479 173.247 262.744 175.772 256.569C178.298 250.395 184.532 230.814 184.532 230.814C184.532 230.814 186.186 229.177 182.689 228.989C179.192 228.8 136.772 223.678 118.917 218.441C101.062 213.203 82.3306 210.582 79.811 204.949L80.3997 201.396C80.3997 201.396 58.6478 199.93 58.0827 203.58C57.5176 207.23 53.1083 224.712 53.1083 224.712Z" fill="#2E2E2E"/>
<path d="M154.534 44.557C157.283 41.8892 157.369 37.368 154.725 34.4585C152.081 31.5491 147.709 31.3532 144.959 34.0209C142.21 36.6887 142.125 41.2099 144.769 44.1193C147.413 47.0288 151.785 47.2247 154.534 44.557Z" fill="#EBECEC"/>
<path d="M134.975 41.4743C137.727 38.8042 137.812 34.2791 135.166 31.3672C132.52 28.4554 128.144 28.2593 125.392 30.9294C122.641 33.5994 122.555 38.1245 125.202 41.0364C127.848 43.9483 132.224 44.1443 134.975 41.4743Z" fill="#EBECEC"/>
<path d="M139.503 69.9535C139.503 69.9535 138.879 73.5608 137.566 79.729C134.323 79.6682 130.426 82.7705 127.235 82.7219C125.881 73.2749 127.871 65.9752 130.096 61.1392C132.533 67.4108 136.436 69.4121 139.503 69.9535Z" fill="#353642"/>
<path d="M191.855 96.3418C185.485 92.4669 178.951 87.5822 171.71 85.5018L167.589 83.5673C167.589 83.5673 167.277 82.7583 167.265 82.7461C166.5 80.538 165.211 77.5999 164.852 75.2944C164.412 72.5648 164.368 69.7826 164.722 67.0397C165.311 62.964 167.401 54.3869 170.809 51.7651C173.653 49.5935 174.783 50.1044 176.467 46.6249C177.644 44.143 178.233 39.9336 176.113 38.0052C173.759 35.8883 172.664 36.9103 169.744 37.1171C158.635 37.9018 152.554 29.4646 148.763 19.823C148.221 18.2015 147.466 16.6644 146.52 15.2546C145.343 13.7034 143.689 13.308 142.352 12.0367C142.049 11.7843 141.825 11.4436 141.711 11.0587C141.596 10.6737 141.596 10.2622 141.711 9.87718C141.888 9.52615 142.137 9.21901 142.441 8.97689C145.108 6.59017 148.276 4.87818 151.695 3.97661C157.102 2.55011 162.77 2.55011 168.178 3.97661C173.997 6.0762 178.918 10.2205 182.083 15.6865C186.604 23.5945 187.504 31.7275 184.608 39.6842C181.665 47.8415 178.315 57.4224 183.189 65.5128C189.682 76.2616 193.574 83.7985 191.855 96.3418Z" fill="#353642"/>
<path d="M144.007 69.7952C142.531 70.1631 140.999 70.2169 139.503 69.9533C136.436 69.412 132.527 67.4106 130.084 61.139C129.587 59.8589 129.193 58.5384 128.907 57.1911C127.73 52.0509 127.37 44.9094 128.442 35.0062C128.648 33.1083 128.93 31.1799 129.301 29.2577C129.92 25.9108 130.855 22.6346 132.092 19.4761C132.092 19.4761 132.092 19.4761 132.092 19.4396C135.17 11.7446 140.374 5.33303 148.875 3.07014C155.247 1.38453 161.96 1.6958 168.16 3.96435C173.98 6.06394 178.901 10.2083 182.065 15.6742C186.586 23.5822 187.487 31.7153 184.59 39.6719C181.647 47.8293 178.297 57.4101 183.172 65.5005C189.647 76.2615 193.556 83.7984 191.867 96.3416" stroke="black" stroke-width="0.8" stroke-miterlimit="10"/>
<path d="M124.639 83.0259C122.525 70.6895 126.128 61.8569 128.895 57.1912" stroke="black" stroke-width="0.8" stroke-miterlimit="10"/>
<path d="M129.295 29.2516C129.295 29.2516 134.882 23.5701 140.887 33.011" stroke="black" stroke-width="0.8" stroke-miterlimit="10"/>
<path d="M141.716 58.7301C143.788 60.555 146.985 60.038 148.963 57.9332C151.106 55.6399 152.271 52.349 153.084 49.3257C153.143 49.1128 153.196 48.8938 153.243 48.6748C149.893 52.793 144.377 53.1337 139.579 52.9329C139.57 54.4275 139.92 55.901 140.598 57.2215C140.875 57.7931 141.254 58.305 141.716 58.7301V58.7301Z" stroke="black" stroke-width="0.8" stroke-linecap="round" stroke-linejoin="round"/>
<path d="M146.703 27.9986C146.703 27.9986 148.64 24.9571 154.862 27.445C161.085 29.933 161.055 33.6254 161.055 33.6254" stroke="black" stroke-width="0.8" stroke-miterlimit="10"/>
<path d="M132.174 35.207C132.174 35.207 135.117 33.7836 137.36 35.3712" stroke="black" stroke-width="0.8" stroke-miterlimit="10"/>
<path d="M147.804 37.1051C147.804 37.1051 150.747 35.6756 152.99 37.2633" stroke="black" stroke-width="0.8" stroke-miterlimit="10"/>
<path d="M139.503 69.9535C139.503 69.9535 138.208 76.7665 136.895 82.9347C136.706 83.8107 136.53 84.6745 136.353 85.5261C135.488 89.6808 134.787 93.3733 134.729 94.4986C134.263 103.836 142.658 109.506 150.923 109.676C162.514 109.907 169.62 98.9758 168.86 87.7769C168.201 85.7208 167.536 83.6586 166.882 81.6026C166.041 78.9625 164.922 76.3833 164.486 73.6155C164.111 70.8913 164.143 68.1237 164.581 65.4095C165.169 61.3521 166.111 55.3055 169.52 52.6837C172.357 50.5181 175.306 49.1251 176.99 45.6517C178.197 43.1698 178.238 39.9214 176.095 37.9992C173.741 35.8823 169.861 36.01 166.935 36.2169C148.098 37.6099 145.537 17.8521 140.533 14.9262C136.412 12.5234 133.157 17.5236 132.121 19.385L132.079 19.4641C132.083 19.4718 132.084 19.4801 132.084 19.4885C132.084 19.4968 132.083 19.5051 132.079 19.5128C131.891 19.8595 131.797 20.0664 131.797 20.0664" stroke="black" stroke-width="0.8" stroke-miterlimit="10"/>
<path d="M139.957 37.7256C139.957 37.7256 137.797 44.3074 137.92 45.3051C138.044 46.3027 140.357 45.6822 140.357 45.6822" stroke="black" stroke-width="0.8" stroke-miterlimit="10"/>
<path d="M155.146 45.2308C158.246 42.2227 158.342 37.1238 155.359 33.8421C152.377 30.5604 147.446 30.3386 144.346 33.3468C141.246 36.3549 141.151 41.4538 144.133 44.7355C147.116 48.0172 152.046 48.239 155.146 45.2308Z" stroke="black" stroke-width="0.8" stroke-miterlimit="10"/>
<path d="M135.584 42.1437C138.684 39.1356 138.779 34.0367 135.797 30.755C132.815 27.4733 127.884 27.2515 124.784 30.2596C121.684 33.2677 121.589 38.3666 124.571 41.6483C127.553 44.93 132.484 45.1518 135.584 42.1437Z" stroke="black" stroke-width="0.8" stroke-miterlimit="10"/>
<path d="M130.007 30.4499C130.291 30.4512 130.574 30.4736 130.855 30.5168C132.324 30.7533 133.647 31.5697 134.545 32.794C135.443 34.0183 135.847 35.5549 135.67 37.0804C135.525 38.4246 134.903 39.6655 133.925 40.5641C132.947 41.4627 131.681 41.9552 130.372 41.9469C130.089 41.9455 129.805 41.9232 129.525 41.8799C128.056 41.6405 126.734 40.8226 125.836 39.5977C124.938 38.3728 124.534 36.8362 124.709 35.3102C124.863 33.9727 125.488 32.7406 126.465 31.8495C127.443 30.9584 128.704 30.4709 130.007 30.4803V30.4499ZM130.007 29.1055C128.379 29.1012 126.805 29.7122 125.582 30.8237C124.359 31.9351 123.571 33.4702 123.367 35.1399C123.241 36.1635 123.327 37.2032 123.62 38.1896C123.913 39.176 124.407 40.0865 125.068 40.8602C125.728 41.6339 126.541 42.2531 127.452 42.6765C128.363 43.0999 129.35 43.3178 130.349 43.3155C131.977 43.3214 133.551 42.7116 134.774 41.6012C135.997 40.4908 136.785 38.9564 136.989 37.2872C137.211 35.4057 136.716 33.5088 135.608 31.9978C134.501 30.4867 132.868 29.4801 131.055 29.1907C130.709 29.1326 130.358 29.1041 130.007 29.1055Z" fill="#F8F8F8"/>
<path d="M142.011 38.0479L137.908 37.4031" stroke="black" stroke-width="0.8" stroke-miterlimit="10"/>
<path d="M87.5405 158.912V137.962H42.1354C41.9941 137.962 41.8646 137.962 41.7233 137.962L41.4643 137.993C41.4597 137.99 41.4547 137.989 41.4496 137.989C41.4445 137.989 41.4395 137.99 41.4349 137.993C41.3466 137.993 41.2642 138.029 41.1759 138.047C41.0952 138.06 41.0162 138.083 40.9404 138.114C40.8627 138.136 40.7876 138.166 40.7167 138.205C40.6814 138.205 40.6519 138.205 40.6166 138.236C40.5813 138.266 40.4341 138.315 40.3458 138.364C40.235 138.417 40.1286 138.48 40.0279 138.552C39.9356 138.601 39.8487 138.66 39.7689 138.729C39.6331 138.823 39.5069 138.931 39.3922 139.051C39.2634 139.159 39.1469 139.281 39.0448 139.416C38.9412 139.544 38.8449 139.678 38.7564 139.817C38.6679 139.951 38.5892 140.091 38.5209 140.237C38.4441 140.382 38.3829 140.535 38.3384 140.693C38.2856 140.849 38.2423 141.007 38.2089 141.168C38.1505 141.442 38.1189 141.721 38.1147 142.001L37.8851 154.605C37.8731 154.747 37.8731 154.89 37.8851 155.031C37.8729 155.093 37.8729 155.158 37.8851 155.22V155.275C37.8823 155.315 37.8823 155.356 37.8851 155.396C37.8951 155.471 37.9129 155.544 37.9381 155.615C37.9482 155.716 37.9741 155.815 38.0146 155.907C38.0953 156.196 38.2059 156.476 38.3443 156.741C38.4703 156.972 38.6161 157.192 38.7799 157.398C38.8641 157.503 38.9546 157.602 39.0507 157.696C39.1424 157.79 39.2387 157.879 39.3392 157.963L39.5217 158.115C39.6217 158.182 39.7159 158.249 39.8278 158.316C39.9579 158.401 40.0937 158.476 40.234 158.541C40.3802 158.613 40.5318 158.672 40.6873 158.718C41.0685 158.84 41.4653 158.904 41.8646 158.906H50.5889L53.2674 157.793C54.9746 157.793 56.8878 156.868 58.6009 156.868L60.314 159.137L87.5405 158.912Z" fill="#EBECEC"/>
<path d="M159.96 142.141V154.757C159.96 155.862 159.535 156.922 158.779 157.704C158.022 158.485 156.997 158.924 155.927 158.924H87.5459V137.968H155.927C156.457 137.968 156.982 138.076 157.472 138.286C157.962 138.496 158.406 138.803 158.781 139.191C159.155 139.578 159.452 140.038 159.655 140.545C159.857 141.051 159.961 141.593 159.96 142.141Z" fill="#D8D9DB"/>
<path d="M87.54 158.912H94.4158V201.591H52.8371C51.3398 201.663 49.84 201.52 48.3808 201.165C48.2336 201.122 48.0806 201.068 47.9275 201.013L47.8451 200.976C46.6922 200.573 45.7102 199.769 45.0665 198.701C45.0706 198.69 45.0706 198.677 45.0665 198.665L44.937 198.446C46.1497 198.744 47.38 198.987 48.6045 199.176C48.8454 199.229 49.0892 199.268 49.3345 199.291C49.9232 199.377 50.5118 199.443 51.13 199.51C51.206 199.522 51.2835 199.522 51.3595 199.51L52.3132 199.596C52.6318 199.632 52.9522 199.65 53.2728 199.65C53.2867 199.657 53.3017 199.66 53.3169 199.66C53.3321 199.66 53.3471 199.657 53.3611 199.65C53.7143 199.65 54.0616 199.687 54.4148 199.699C54.4887 199.714 54.5646 199.714 54.6385 199.699C54.7418 199.717 54.8473 199.717 54.9505 199.699C55.6098 199.735 56.275 199.735 56.9403 199.699C57.8704 199.699 58.7946 199.656 59.7071 199.602C60.4258 199.562 61.1414 199.477 61.8499 199.346C62.0962 199.309 62.34 199.256 62.5798 199.188C62.7794 199.147 62.976 199.092 63.1685 199.024L63.2686 198.987C63.6451 198.854 64.008 198.683 64.3518 198.476C65.7411 197.643 66.7948 196.043 66.524 194.388C66.377 193.626 66.0023 192.93 65.4526 192.399C65.4055 192.357 65.3643 192.308 65.3113 192.265L65.2701 192.235C64.9896 191.98 64.6814 191.76 64.3518 191.578C63.3913 191.08 62.3631 190.735 61.3024 190.556L60.9139 190.477C61.1081 190.507 61.3083 190.532 61.5025 190.568H61.6321C63.1663 190.843 64.7311 190.884 66.2768 190.69L66.5711 190.66L66.6888 190.623C67.522 190.469 68.3144 190.136 69.0144 189.644C69.7143 189.153 70.306 188.514 70.7508 187.77C70.8313 187.616 70.9002 187.455 70.9568 187.29C70.9922 187.223 71.0217 187.154 71.0451 187.083C71.1822 186.637 71.2439 186.17 71.2276 185.702C71.2282 185.535 71.2164 185.368 71.1923 185.203C71.1198 184.61 70.9329 184.038 70.6427 183.521C70.3525 183.003 69.9649 182.552 69.5027 182.192C69.3488 182.068 69.1831 181.96 69.0083 181.87C68.3387 181.531 67.614 181.325 66.8713 181.261H66.7301C66.3356 181.213 65.9118 181.194 65.5174 181.17C62.4386 181.006 59.3715 180.823 56.2986 180.659H55.963L51.4361 180.416L48.7046 180.258H48.5221L46.0908 180.124C46.3616 180.124 46.6324 180.154 46.8973 180.178H47.1269L48.0629 180.233C50.6943 180.397 53.3316 180.556 55.963 180.653H56.2986C56.2986 180.653 56.2986 180.653 56.3516 180.653C56.8814 180.653 57.4171 180.689 57.9469 180.708H58.0646C59.4304 180.744 60.7844 180.762 62.1501 180.762C63.544 180.838 64.9397 180.655 66.2709 180.221C66.8998 179.981 67.4747 179.61 67.9604 179.132C68.0262 179.079 68.0838 179.015 68.1311 178.944C68.5932 178.47 68.9123 177.868 69.0495 177.21C69.1815 176.459 69.0827 175.685 68.7669 174.996C68.7386 174.906 68.699 174.82 68.6492 174.74C68.3566 174.167 67.9563 173.661 67.4718 173.25C66.3031 172.351 64.9422 171.757 63.5041 171.516C62.674 171.34 61.8499 171.194 61.0081 171.096C60.991 171.09 60.9722 171.09 60.9551 171.096C59.8449 170.965 58.7288 170.894 57.6114 170.884H57.3111C56.7224 170.884 56.0749 170.884 55.4568 170.884C52.5134 170.975 49.6406 171.541 46.7266 171.492C46.6974 171.399 46.6974 171.299 46.7266 171.206C46.7578 171.139 46.7953 171.076 46.8385 171.017C46.9501 170.889 47.0892 170.789 47.2446 170.725C48.1888 170.417 49.1477 170.159 50.1174 169.953C51.1032 169.637 52.0637 169.243 52.9902 168.773C53.3022 168.615 53.6142 168.438 53.9262 168.274C53.9495 168.26 53.9713 168.244 53.9909 168.225C55.1793 167.54 56.2924 166.724 57.3111 165.792L57.5702 165.561C57.7291 165.415 57.8939 165.269 58.0411 165.117C58.8909 164.334 59.5762 163.38 60.0544 162.313C60.1641 162.04 60.247 161.757 60.3016 161.467C60.3249 161.377 60.3427 161.286 60.3546 161.193C60.3785 161.034 60.3903 160.874 60.3899 160.713C60.3899 160.561 60.3193 159.241 60.2958 159.089" fill="#EBECEC"/>
<path d="M152.101 158.912V194.309C152.102 194.574 152.088 194.838 152.06 195.1L139.009 197.886C135.118 198.732 133.469 198.063 132.645 196.001C129.613 188.464 121.542 188.701 121.542 188.701L115.167 188.67C114.143 188.67 113.136 188.537 112.124 188.47C111.492 188.431 110.859 188.525 110.264 188.747C109.669 188.969 109.123 189.314 108.661 189.761C108.199 190.208 107.83 190.747 107.576 191.346C107.322 191.945 107.189 192.591 107.185 193.245C107.185 194.244 107.487 195.218 108.049 196.031C108.61 196.844 109.403 197.457 110.316 197.783L115.22 198.793C115.417 198.832 115.602 198.918 115.762 199.045C115.921 199.171 116.049 199.334 116.137 199.52C116.225 199.706 116.27 199.911 116.268 200.119C116.266 200.326 116.218 200.53 116.127 200.715C115.834 201.094 115.456 201.393 115.026 201.585H94.4219V158.912H152.101Z" fill="#D8D9DB"/>
<path d="M80.4521 137.962H87.5399H94.4157" stroke="black" stroke-width="0.8" stroke-miterlimit="10"/>
<path d="M60.0422 158.924H155.921C156.462 158.928 156.997 158.814 157.493 158.59C157.972 158.38 158.406 158.074 158.77 157.689C159.145 157.303 159.442 156.844 159.644 156.339C159.846 155.833 159.949 155.292 159.948 154.745V142.141C159.948 141.594 159.843 141.052 159.641 140.546C159.438 140.041 159.141 139.582 158.767 139.195C158.392 138.808 157.948 138.501 157.458 138.291C156.969 138.082 156.445 137.974 155.915 137.974H42.1345C41.9932 137.974 41.8637 137.974 41.7224 137.974L41.4634 138.005C41.0737 138.072 40.6965 138.201 40.3449 138.388C40.2389 138.443 40.133 138.509 40.027 138.576C39.9347 138.625 39.8478 138.684 39.768 138.753C39.6349 138.85 39.509 138.958 39.3912 139.075C39.2681 139.189 39.1521 139.311 39.0439 139.44C38.9403 139.568 38.844 139.702 38.7555 139.842C38.6672 139.975 38.5965 140.121 38.52 140.261C38.4435 140.401 38.3905 140.566 38.3375 140.718C38.2847 140.873 38.2414 141.031 38.208 141.192C38.1495 141.466 38.118 141.745 38.1138 142.025L37.896 154.642V154.842C37.8901 154.913 37.8901 154.984 37.896 155.055C37.896 155.14 37.896 155.22 37.896 155.299C37.8931 155.339 37.8931 155.38 37.896 155.42V155.42C37.896 155.487 37.9313 155.572 37.949 155.639C37.9666 155.706 37.9961 155.84 38.0255 155.931C38.104 156.212 38.2105 156.483 38.3434 156.74C38.4694 156.972 38.6152 157.192 38.779 157.397V157.397C38.8673 157.495 38.9556 157.598 39.0498 157.695C39.1415 157.79 39.2378 157.879 39.3383 157.963L39.5207 158.115C39.6208 158.182 39.715 158.249 39.8269 158.316C39.9584 158.398 40.094 158.473 40.2331 158.541C40.3793 158.612 40.5309 158.671 40.6863 158.717C41.0774 158.851 41.487 158.919 41.899 158.918H50.5468" stroke="black" stroke-width="0.8" stroke-miterlimit="10"/>
<path d="M44.8779 198.421C44.9309 198.494 44.9839 198.573 45.0486 198.653C45.2415 198.93 45.4561 199.19 45.6903 199.431C45.8438 199.6 46.0091 199.756 46.1848 199.9C46.3614 200.039 46.5439 200.185 46.7264 200.307C46.9089 200.451 47.1064 200.573 47.3151 200.672C47.4917 200.776 47.6624 200.861 47.8449 200.952L47.9273 200.988C48.135 201.091 48.3518 201.173 48.5749 201.232C48.7674 201.297 48.9641 201.347 49.1635 201.384C49.2439 201.411 49.3268 201.429 49.4108 201.439C49.595 201.482 49.7819 201.512 49.97 201.53V201.53C50.2041 201.563 50.4403 201.577 50.6765 201.572H114.996C115.426 201.38 115.805 201.081 116.097 200.703C116.187 200.518 116.234 200.314 116.236 200.107C116.237 199.9 116.192 199.695 116.104 199.509C116.016 199.323 115.888 199.161 115.73 199.034C115.571 198.908 115.387 198.821 115.19 198.78L110.286 197.77C109.373 197.444 108.58 196.832 108.019 196.019C107.458 195.205 107.156 194.231 107.155 193.233C107.159 192.579 107.292 191.933 107.546 191.334C107.8 190.735 108.169 190.195 108.632 189.749C109.094 189.302 109.639 188.957 110.234 188.735C110.829 188.513 111.462 188.419 112.094 188.457C113.106 188.524 114.113 188.646 115.137 188.658L121.513 188.688C121.513 188.688 129.584 188.445 132.615 195.988C133.439 198.05 135.088 198.719 138.979 197.874L152.059 195.088C152.088 194.825 152.102 194.561 152.101 194.297V158.924H87.5398" stroke="black" stroke-width="0.8" stroke-miterlimit="10"/>
<path d="M155.645 105.162V113.295C155.645 114.008 155.371 114.692 154.883 115.196C154.395 115.701 153.733 115.984 153.043 115.984H91.708V102.473H153.043C153.733 102.473 154.395 102.757 154.883 103.261C155.371 103.765 155.645 104.449 155.645 105.162Z" fill="#D8D9DB"/>
<path d="M91.7082 102.473V115.984H62.2741C61.9291 115.983 61.5877 115.912 61.2697 115.774C60.9516 115.635 60.6633 115.434 60.4213 115.18C60.1793 114.926 59.9884 114.624 59.8598 114.294C59.7312 113.963 59.6674 113.609 59.6721 113.253L59.8134 105.107C59.8258 104.403 60.1055 103.732 60.5923 103.24C61.0791 102.747 61.7339 102.472 62.4154 102.473H91.7082Z" fill="#EBECEC"/>
<path d="M150.576 115.984V133.266C150.573 134.512 150.093 135.706 149.24 136.588C148.387 137.469 147.232 137.965 146.026 137.968H96.1465V115.984H150.576Z" fill="#D8D9DB"/>
<path d="M96.1465 115.984V137.968H67.925C66.7186 137.967 65.5621 137.471 64.7091 136.589C63.856 135.708 63.3761 134.513 63.3745 133.266V115.984H96.1465Z" fill="#EBECEC"/>
<path d="M87.54 137.968V158.918" stroke="black" stroke-width="0.8" stroke-miterlimit="10"/>
<path d="M94.416 158.918V201.597" stroke="black" stroke-width="0.8" stroke-miterlimit="10"/>
<path d="M155.645 105.162V113.295C155.645 114.008 155.371 114.692 154.883 115.196C154.395 115.701 153.733 115.984 153.043 115.984H91.708V102.473H153.043C153.733 102.473 154.395 102.757 154.883 103.261C155.371 103.765 155.645 104.449 155.645 105.162Z" stroke="black" stroke-width="0.8" stroke-miterlimit="10"/>
<path d="M91.7082 102.473V115.984H62.2741C61.9291 115.983 61.5877 115.912 61.2697 115.774C60.9516 115.635 60.6633 115.434 60.4213 115.18C60.1793 114.926 59.9884 114.624 59.8598 114.294C59.7312 113.963 59.6674 113.609 59.6721 113.253L59.8134 105.107C59.8258 104.403 60.1055 103.732 60.5923 103.24C61.0791 102.747 61.7339 102.472 62.4154 102.473H91.7082Z" stroke="black" stroke-width="0.8" stroke-miterlimit="10"/>
<path d="M150.576 115.984V133.266C150.573 134.512 150.093 135.706 149.24 136.588C148.387 137.469 147.232 137.965 146.026 137.968H96.1465V115.984H150.576Z" stroke="black" stroke-width="0.8" stroke-miterlimit="10"/>
<path d="M96.1465 115.984V137.968H67.925C66.7186 137.967 65.5621 137.471 64.7091 136.589C63.856 135.708 63.3761 134.513 63.3745 133.266V115.984H96.1465Z" stroke="black" stroke-width="0.8" stroke-miterlimit="10"/>
<path d="M124.363 64.375V72.508C124.366 72.8637 124.302 73.2166 124.173 73.5463C124.044 73.876 123.853 74.176 123.611 74.4289C123.369 74.6818 123.081 74.8826 122.763 75.0196C122.446 75.1566 122.105 75.2272 121.761 75.2272H77.6094V61.6863H121.761C122.451 61.6863 123.112 61.9696 123.6 62.4738C124.088 62.978 124.363 63.6619 124.363 64.375Z" fill="#D8D9DB"/>
<path d="M77.6324 61.6807H49.8643V75.1972H77.6324V61.6807Z" fill="#EBECEC"/>
<path d="M119.3 75.2273V98.0631C119.296 99.3092 118.816 100.503 117.963 101.385C117.111 102.266 115.955 102.762 114.749 102.765H82.0771V75.2273H119.3Z" fill="#D8D9DB"/>
<path d="M82.0767 75.2273V102.765H53.8552C53.7339 102.778 53.6116 102.778 53.4902 102.765V75.2273H82.0767Z" fill="#EBECEC"/>
<path d="M124.363 64.375V72.508C124.366 72.8637 124.302 73.2166 124.173 73.5463C124.044 73.876 123.853 74.176 123.611 74.4289C123.369 74.6818 123.081 74.8826 122.763 75.0196C122.446 75.1566 122.105 75.2272 121.761 75.2272H77.6094V61.6863H121.761C122.451 61.6863 123.112 61.9696 123.6 62.4738C124.088 62.978 124.363 63.6619 124.363 64.375Z" stroke="black" stroke-width="0.8" stroke-miterlimit="10"/>
<path d="M77.6321 61.6863V75.2272H48.198C47.8528 75.2272 47.5111 75.1563 47.1927 75.0185C46.8743 74.8807 46.5856 74.6789 46.3434 74.4247C46.1012 74.1705 45.9104 73.869 45.7821 73.5379C45.6538 73.2067 45.5906 72.8525 45.596 72.4959L45.7373 64.3446C45.7497 63.6411 46.0296 62.9709 46.5166 62.4791C47.0036 61.9873 47.6584 61.7134 48.3393 61.7167L77.6321 61.6863Z" stroke="black" stroke-width="0.8" stroke-miterlimit="10"/>
<path d="M119.3 75.2273V98.0631C119.296 99.3092 118.816 100.503 117.963 101.385C117.111 102.266 115.955 102.762 114.749 102.765H82.0771V75.2273H119.3Z" stroke="black" stroke-width="0.8" stroke-miterlimit="10"/>
<path d="M82.0767 75.2273V102.765H53.8552C52.6488 102.764 51.4923 102.268 50.6392 101.386C49.7862 100.505 49.3062 99.3097 49.3047 98.0631V75.2273H82.0767Z" stroke="black" stroke-width="0.8" stroke-miterlimit="10"/>
<path d="M114.608 36.3869V41.7278C114.608 41.96 114.564 42.1899 114.477 42.4043C114.391 42.6187 114.265 42.8135 114.106 42.9774C113.947 43.1413 113.758 43.2711 113.55 43.3594C113.342 43.4477 113.12 43.4927 112.895 43.4919H83.9258V34.6228H112.895C113.12 34.622 113.342 34.667 113.55 34.7553C113.758 34.8436 113.947 34.9735 114.106 35.1373C114.265 35.3012 114.391 35.496 114.477 35.7104C114.564 35.9248 114.608 36.1547 114.608 36.3869Z" fill="#D8D9DB"/>
<path d="M83.9259 34.6228H65.6885V43.4919H83.9259V34.6228Z" fill="#EBECEC"/>
<path d="M111.281 43.4922V58.4869C111.278 59.3049 110.962 60.0885 110.402 60.6663C109.841 61.2442 109.083 61.5694 108.291 61.571H86.8452V43.4922H111.281Z" fill="#D8D9DB"/>
<path d="M86.8455 43.4858H68.355V61.5647H86.8455V43.4858Z" fill="#EBECEC"/>
<path d="M114.608 36.3869V41.7278C114.608 41.96 114.564 42.1899 114.477 42.4043C114.391 42.6187 114.265 42.8135 114.106 42.9774C113.947 43.1413 113.758 43.2711 113.55 43.3594C113.342 43.4477 113.12 43.4927 112.895 43.4919H83.9258V34.6228H112.895C113.12 34.622 113.342 34.667 113.55 34.7553C113.758 34.8436 113.947 34.9735 114.106 35.1373C114.265 35.3012 114.391 35.496 114.477 35.7104C114.564 35.9248 114.608 36.1547 114.608 36.3869V36.3869Z" stroke="black" stroke-width="0.8" stroke-miterlimit="10"/>
<path d="M83.926 34.6229V43.492H64.5996C64.3706 43.4913 64.1441 43.4432 63.9334 43.3505C63.7227 43.2578 63.5321 43.1223 63.373 42.9522C63.2138 42.7821 63.0893 42.5807 63.0068 42.3599C62.9242 42.1392 62.8853 41.9036 62.8924 41.6671L62.9866 36.3201C62.9958 35.8586 63.1798 35.4192 63.4989 35.0962C63.8181 34.7733 64.2471 34.5924 64.6938 34.5925L83.926 34.6229Z" stroke="black" stroke-width="0.8" stroke-miterlimit="10"/>
<path d="M111.281 43.4922V58.4869C111.278 59.3049 110.962 60.0885 110.402 60.6663C109.841 61.2442 109.083 61.5694 108.291 61.571H86.8452V43.4922H111.281Z" stroke="black" stroke-width="0.8" stroke-miterlimit="10"/>
<path d="M86.8455 43.4922V61.571H68.3137C67.5226 61.5694 66.7644 61.244 66.205 60.6659C65.6456 60.0879 65.3307 59.3044 65.3291 58.4869V43.4922H86.8455Z" stroke="black" stroke-width="0.8" stroke-miterlimit="10"/>
<path d="M109.521 13.5817V18.0467C109.52 18.4382 109.369 18.8133 109.101 19.0901C108.833 19.367 108.47 19.5232 108.091 19.5248H83.8901V12.1035H108.091C108.279 12.1035 108.465 12.1418 108.638 12.216C108.812 12.2903 108.97 12.3992 109.102 12.5365C109.235 12.6737 109.341 12.8367 109.412 13.016C109.484 13.1954 109.521 13.3876 109.521 13.5817Z" fill="#D8D9DB"/>
<path d="M83.8961 12.1035H69.2261V19.5188H83.8961V12.1035Z" fill="#EBECEC"/>
<path d="M106.743 19.519V32.038C106.74 32.721 106.476 33.3752 106.008 33.8582C105.541 34.3412 104.908 34.614 104.247 34.6172H86.3271V19.519H106.743Z" fill="#D8D9DB"/>
<path d="M86.3275 19.519V34.6233H70.851C70.4696 34.6249 70.0929 34.5352 69.7508 34.361C69.4086 34.1869 69.1101 33.9331 68.8789 33.6196H71.3749V19.519H86.3275Z" fill="#EBECEC"/>
<path d="M109.521 13.5817V18.0467C109.52 18.4382 109.369 18.8133 109.101 19.0901C108.833 19.367 108.47 19.5232 108.091 19.5248H83.8901V12.1035H108.091C108.279 12.1035 108.465 12.1418 108.638 12.216C108.812 12.2903 108.97 12.3992 109.102 12.5365C109.235 12.6737 109.341 12.8367 109.412 13.016C109.484 13.1954 109.521 13.3876 109.521 13.5817V13.5817Z" stroke="black" stroke-width="0.8" stroke-miterlimit="10"/>
<path d="M83.8903 12.1035V19.5188H67.7427C67.5533 19.518 67.366 19.4784 67.1916 19.4022C67.0171 19.326 66.8591 19.2149 66.7266 19.0751C66.5941 18.9353 66.4897 18.7698 66.4196 18.588C66.3495 18.4062 66.3149 18.2119 66.3181 18.0162L66.3946 13.5513C66.4008 13.1651 66.5536 12.7969 66.8201 12.5261C67.0866 12.2552 67.4454 12.1035 67.8192 12.1035H83.8903Z" stroke="black" stroke-width="0.8" stroke-miterlimit="10"/>
<path d="M106.743 19.519V32.038C106.74 32.721 106.476 33.3752 106.008 33.8582C105.541 34.3412 104.908 34.614 104.247 34.6172H86.3271V19.519H106.743Z" stroke="black" stroke-width="0.8" stroke-miterlimit="10"/>
<path d="M86.3269 19.519V34.6233H70.8446C70.1851 34.6169 69.5548 34.3417 69.0907 33.8575C68.6265 33.3734 68.3662 32.7194 68.3662 32.038V19.519H86.3269Z" stroke="black" stroke-width="0.8" stroke-miterlimit="10"/>
<path d="M79.2923 483.036C72.5107 483.632 65.7271 484.222 58.9416 484.806C57.3358 484.935 55.8368 485.687 54.7458 486.912C53.6549 488.136 53.0528 489.742 53.0606 491.406C53.0606 492.273 53.2261 493.131 53.5475 493.932C53.8689 494.733 54.34 495.46 54.9338 496.073C55.5276 496.685 56.2325 497.171 57.0081 497.502C57.7837 497.832 58.6147 498.002 59.4537 498L113.695 497.939C113.909 497.939 114.121 497.887 114.313 497.789C114.505 497.69 114.672 497.547 114.802 497.37C114.931 497.193 115.019 496.988 115.059 496.77C115.099 496.552 115.089 496.328 115.031 496.114C102.346 448.27 95.4393 398.988 94.4686 349.391" fill="#F8F8F8"/>
<path d="M79.2923 483.036C72.5107 483.632 65.7271 484.222 58.9416 484.806C57.3358 484.935 55.8368 485.687 54.7458 486.912C53.6549 488.136 53.0528 489.742 53.0606 491.406V491.406C53.0606 492.273 53.2261 493.131 53.5475 493.932C53.8689 494.733 54.34 495.46 54.9338 496.073C55.5276 496.685 56.2325 497.171 57.0081 497.502C57.7837 497.832 58.6147 498.002 59.4537 498L113.695 497.939C113.909 497.939 114.121 497.887 114.313 497.789C114.505 497.69 114.672 497.547 114.802 497.37C114.931 497.193 115.019 496.988 115.059 496.77C115.099 496.552 115.089 496.328 115.031 496.114C102.346 448.27 95.4393 398.988 94.4686 349.391" stroke="black" stroke-width="0.8" stroke-miterlimit="10"/>
<path d="M181.453 188.474V188.463" stroke="black" stroke-width="0.8" stroke-miterlimit="10"/>
<path d="M168.902 255.797C168.189 259.009 167.459 262.215 166.688 265.414C166.482 266.278 166.264 267.148 166.052 268C157.876 301.055 145.684 334.226 151.812 367.677C160.201 413.446 188.67 462.11 209.65 496.029C210.133 496.82 203.051 498.006 202.145 498C185.938 497.854 163.751 497.714 146.602 497.568C144.985 497.555 143.438 496.884 142.297 495.699C141.157 494.515 140.514 492.913 140.509 491.242V491.132C140.503 489.628 141.015 488.171 141.954 487.021C142.892 485.871 144.195 485.103 145.631 484.855C152.042 483.754 160.996 482.653 165.016 481.558L157.034 472.141C143.129 454.865 127.823 437.17 117.645 417.156C101.686 385.713 92.5436 350.79 89.8298 315.423C88.3463 296.207 89.5178 276.869 93.9505 258.145" fill="#F8F8F8"/>
<path d="M168.902 255.797C168.189 259.009 167.459 262.215 166.688 265.414C166.482 266.278 166.264 267.148 166.052 268C157.876 301.055 145.684 334.226 151.812 367.677C160.201 413.446 188.67 462.11 209.65 496.029C210.133 496.82 203.051 498.006 202.145 498C185.938 497.854 163.751 497.714 146.602 497.568C144.985 497.555 143.438 496.884 142.297 495.699C141.157 494.515 140.514 492.913 140.509 491.242V491.132C140.503 489.628 141.015 488.171 141.954 487.021C142.892 485.871 144.195 485.103 145.631 484.855C152.042 483.754 160.996 482.653 165.016 481.558L157.034 472.141C143.129 454.865 127.823 437.17 117.645 417.156C101.686 385.713 92.5436 350.79 89.8298 315.423C88.3463 296.207 89.5178 276.869 93.9505 258.145" stroke="black" stroke-width="0.8" stroke-miterlimit="10"/>
<path d="M119.299 85.7328C121.847 84.4016 124.481 83.2532 127.182 82.2959C129.935 81.3174 132.754 80.5529 135.618 80.0086C135.618 80.0086 135.647 80.0086 135.671 80.0086L136.365 79.8748C136.595 79.8322 136.819 79.7957 137.048 79.7653C137.278 79.7349 137.401 79.6984 137.572 79.6741" stroke="black" stroke-width="0.8" stroke-miterlimit="10"/>
<path d="M58.5773 201.597C57.0507 207.631 55.5947 213.688 54.2093 219.767C52.3098 228.149 50.5713 236.562 48.9936 245.006C41.3407 286.297 38.0559 328.836 43.7779 370.621C46.5105 390.659 50.9668 410.406 57.0939 429.626C60.1589 439.226 63.6361 448.668 67.5253 457.955C68.6321 460.577 77.1326 483.048 79.2696 483.048" fill="#F8F8F8"/>
<path d="M58.5773 201.597C57.0507 207.631 55.5947 213.688 54.2093 219.767C52.3098 228.149 50.5713 236.562 48.9936 245.006C41.3407 286.297 38.0559 328.836 43.7779 370.621C46.5105 390.659 50.9668 410.406 57.0939 429.626C60.1589 439.226 63.6361 448.668 67.5253 457.955C68.6321 460.577 77.1326 483.048 79.2696 483.048" stroke="black" stroke-width="0.8" stroke-miterlimit="10"/>
<path d="M159.489 226.373C159.612 226.382 159.734 226.4 159.854 226.428L160.443 226.513C165.005 227.249 169.679 227.882 174.371 228.338C207.002 231.538 239.839 226.483 236.954 191.7C235.188 169.929 228.124 157.379 219.641 137.895C218.993 136.419 218.344 134.953 217.692 133.497C211.076 118.77 203.605 104.907 190.419 95.4903C189.494 94.8211 188.558 94.1885 187.581 93.5741C181.318 89.6813 174.681 86.4685 167.778 83.9872V83.9872L167.678 83.9568" stroke="black" stroke-width="0.8" stroke-miterlimit="10"/>
<path d="M171.892 145.334L187.004 175.318C187.799 176.869 188.137 178.627 187.977 180.375C187.817 182.123 187.165 183.784 186.103 185.154C183.566 188.476 179.663 189.053 175.895 190.021L152.054 195.1L139.008 197.886C135.117 198.732 133.469 198.062 132.645 196C129.613 188.463 121.542 188.701 121.542 188.701L115.167 188.67C114.142 188.67 113.136 188.536 112.123 188.469C111.491 188.431 110.859 188.525 110.264 188.747C109.668 188.969 109.123 189.314 108.661 189.761C108.199 190.207 107.83 190.747 107.576 191.346C107.322 191.945 107.189 192.591 107.184 193.245C107.185 194.244 107.487 195.217 108.048 196.031C108.61 196.844 109.402 197.456 110.316 197.783L115.22 198.792C115.416 198.833 115.601 198.92 115.759 199.047C115.918 199.173 116.046 199.336 116.133 199.522C116.221 199.708 116.266 199.912 116.265 200.119C116.264 200.326 116.216 200.53 116.126 200.715C115.834 201.094 115.456 201.392 115.025 201.585H81.9885C81.6178 201.619 81.2591 201.738 80.9384 201.933C80.6178 202.129 80.3432 202.395 80.1347 202.714C79.9261 203.032 79.7888 203.395 79.7327 203.775C79.6766 204.155 79.7032 204.544 79.8104 204.912C80.3991 207.534 83.313 209 85.5853 209.675C102.363 214.7 119.205 218.745 136.377 222.06C144.379 223.605 152.399 225.085 160.436 226.501" stroke="black" stroke-width="0.8" stroke-miterlimit="10"/>
<path d="M50.565 158.924C45.361 161.357 40.3043 161.248 37.8848 166.783C35.4088 172.772 34.2796 179.264 34.5823 185.769C35.0414 193.725 40.1335 198.032 48.122 199.097C51.4056 199.667 54.739 199.871 58.0648 199.705C60.0546 199.595 62.1856 199.608 64.0164 198.738C66.4477 197.606 67.6604 194.291 65.3056 192.314C64.0812 191.28 62.4034 190.903 60.8552 190.58C62.5742 190.672 64.2107 190.738 65.5647 190.769C68.3609 190.848 71.1925 188.859 71.1925 185.756C71.1925 182.423 68.5434 181.346 65.7943 181.2L46.038 180.148L59.0833 180.799C62.1032 180.957 67.631 181.498 68.8142 177.642C69.0636 176.814 69.0508 175.926 68.7776 175.106C68.5044 174.287 67.9851 173.579 67.2954 173.085C64.9407 171.388 61.75 171.145 58.995 170.987C54.9784 170.663 50.9401 170.769 46.9446 171.303C47.3155 171.2 46.2676 171.303 46.6091 171.2C49.8292 170.153 51.4657 169.983 54.262 168.085" stroke="black" stroke-width="0.8" stroke-miterlimit="10"/>
<path d="M50.5649 158.924C51.0889 158.681 51.7423 158.358 52.437 158.048C52.6371 157.957 52.8549 157.872 53.0669 157.781C53.2788 157.689 53.4789 157.616 53.6909 157.537L54.3149 157.324L54.6269 157.227C54.7564 157.178 54.8976 157.148 55.0272 157.111L55.2509 157.069C55.5032 157.003 55.7586 156.95 56.0161 156.911C56.4061 156.854 56.8007 156.84 57.1935 156.868L57.4643 156.905C57.5303 156.903 57.5959 156.914 57.6586 156.935C57.7881 156.935 57.9176 156.99 58.0412 157.026C58.1875 157.066 58.3295 157.121 58.4651 157.191C58.6898 157.299 58.8996 157.438 59.0891 157.604C59.1513 157.653 59.2085 157.708 59.2598 157.768C59.4461 157.965 59.6118 158.181 59.7543 158.413C59.7543 158.413 63.045 163.036 53.9911 168.28" stroke="black" stroke-width="0.8" stroke-miterlimit="10"/>
<path d="M61.0847 190.641C61.0847 190.641 51.1065 189.601 49.623 189.492" stroke="black" stroke-width="0.8" stroke-miterlimit="10"/>
<path d="M52.8667 225.813C52.8667 225.813 134.888 220.247 168.902 255.797C170.627 257.263 176.366 264.532 166.053 268.005" stroke="black" stroke-width="0.8" stroke-miterlimit="10"/>
<path d="M184.967 229.129C184.967 229.129 178.127 255.894 171.286 264.532" stroke="black" stroke-width="0.8" stroke-miterlimit="10"/>
<path d="M168.072 254.945C168.072 254.945 175.301 259.337 170.121 265.864L165.747 268.006L168.82 256.162L168.072 254.945Z" fill="black"/>
<path d="M192.649 240.297C196.046 203.543 187.451 192.095 180.935 188.591L181.453 188.445C204.341 185.258 209.121 230.51 209.921 241.009L192.649 240.297Z" fill="#D7E8F0"/>
<path d="M192.278 243.187C195.675 206.433 187.451 192.089 180.935 188.61L181.453 188.464C204.341 185.276 209.268 232.682 210.063 243.211L192.278 243.187Z" fill="#EBECEC"/>
<path d="M159.648 243.521H141.086V355.067H159.648V243.521Z" fill="#F8F8F8"/>
<path d="M181.452 188.464C207.354 184.862 210.062 243.211 210.062 243.211H192.278C195.28 186.158 171.992 190.897 171.992 190.897C172.781 190.769 181.452 188.464 181.452 188.464Z" stroke="black" stroke-width="0.8" stroke-miterlimit="10"/>
<path d="M251.006 248.467H164.534V354.732H251.006V248.467Z" fill="#3FBDF1"/>
<path d="M251.006 242.84H159.96V354.732H251.006V242.84Z" fill="#F8F8F8"/>
<path d="M252.112 247.378V350.565C252.112 353.491 249.346 355.863 245.925 355.863H146.479C143.059 355.863 140.286 353.491 140.286 350.565V247.378C140.286 244.452 143.059 242.08 146.479 242.08H245.925C249.346 242.055 252.112 244.428 252.112 247.378Z" fill="#D8D9DB"/>
<path d="M246.797 252.293V346.295C246.801 346.923 246.686 347.547 246.457 348.129C246.229 348.712 245.892 349.243 245.465 349.691C245.038 350.138 244.53 350.495 243.969 350.74C243.409 350.985 242.807 351.114 242.199 351.118H168.36C167.752 351.114 167.151 350.985 166.59 350.74C166.03 350.495 165.522 350.138 165.095 349.691C164.668 349.243 164.33 348.712 164.102 348.129C163.873 347.547 163.758 346.923 163.763 346.295V252.293C163.758 251.664 163.873 251.041 164.102 250.458C164.33 249.876 164.668 249.345 165.095 248.897C165.522 248.449 166.03 248.093 166.59 247.848C167.151 247.603 167.752 247.474 168.36 247.469H242.199C242.807 247.474 243.409 247.603 243.969 247.848C244.53 248.093 245.038 248.449 245.465 248.897C245.892 249.345 246.229 249.876 246.457 250.458C246.686 251.041 246.801 251.664 246.797 252.293Z" fill="#D8D9DB"/>
<path d="M251.006 243.187H159.954V354.732H251.006V243.187Z" stroke="black" stroke-width="0.8" stroke-miterlimit="10"/>
<path d="M159.577 243.187H141.398V354.732H159.577V243.187Z" stroke="black" stroke-width="0.8" stroke-miterlimit="10"/>
<path d="M141.398 354.732L150.37 341.416L159.577 354.732" stroke="black" stroke-width="0.8" stroke-miterlimit="10"/>
<path d="M150.488 243.187L150.37 341.416" stroke="black" stroke-width="0.8" stroke-miterlimit="10"/>
<path d="M177.579 228.338V243.187" stroke="black" stroke-width="0.8" stroke-miterlimit="10"/>
<path d="M192.479 229.129C192.479 229.129 178.78 228.885 176.278 228.149C176.278 228.149 177.579 226.489 177.579 232.462C177.579 238.436 177.067 243.162 178.286 243.162C179.504 243.162 191.666 242.816 191.666 242.816C191.666 242.816 192.638 241.915 192.455 239.166C192.273 236.416 192.479 229.129 192.479 229.129Z" fill="black"/>
<path d="M4.41211 497.97H388.987" stroke="black" stroke-width="0.8" stroke-miterlimit="10"/>
</svg>
