<svg width="80" height="40" viewBox="0 0 80 40" fill="none" xmlns="http://www.w3.org/2000/svg">
<path d="M4.20309 32.7352C3.77309 31.9499 4.11296 32.9159 4.42178 33.4878C5.78326 36.0091 28.7094 28.3676 74.6048 29.0424C75.2642 29.0424 77.2164 31.8863 74.8927 33.7342" stroke="#118834" stroke-width="8" stroke-linecap="round"/>
<path d="M10.972 27C10.7667 27 10.5987 26.9347 10.468 26.804C10.3373 26.6733 10.272 26.5053 10.272 26.3V11.796H5.288C5.08267 11.796 4.91467 11.7307 4.784 11.6C4.65333 11.4507 4.588 11.2827 4.588 11.096V8.1C4.588 7.89467 4.65333 7.72667 4.784 7.596C4.91467 7.46533 5.08267 7.4 5.288 7.4H20.352C20.5573 7.4 20.7253 7.46533 20.856 7.596C20.9867 7.72667 21.052 7.89467 21.052 8.1V11.096C21.052 11.2827 20.9867 11.4507 20.856 11.6C20.7253 11.7307 20.5573 11.796 20.352 11.796H15.368V26.3C15.368 26.5053 15.3027 26.6733 15.172 26.804C15.0413 26.9347 14.8733 27 14.668 27H10.972ZM20.4806 27C20.3313 27 20.1913 26.944 20.0606 26.832C19.9486 26.7013 19.8926 26.5613 19.8926 26.412C19.8926 26.3187 19.902 26.2347 19.9206 26.16L26.5006 8.184C26.5566 7.97867 26.6686 7.80133 26.8366 7.652C27.0233 7.484 27.2753 7.4 27.5926 7.4H31.7366C32.054 7.4 32.2966 7.484 32.4646 7.652C32.6513 7.80133 32.7726 7.97867 32.8286 8.184L39.3806 26.16C39.418 26.2347 39.4366 26.3187 39.4366 26.412C39.4366 26.5613 39.3713 26.7013 39.2406 26.832C39.1286 26.944 38.9886 27 38.8206 27H35.3766C35.0966 27 34.882 26.9347 34.7326 26.804C34.602 26.6547 34.518 26.524 34.4806 26.412L33.3886 23.556H25.9126L24.8486 26.412C24.8113 26.524 24.7273 26.6547 24.5966 26.804C24.466 26.9347 24.242 27 23.9246 27H20.4806ZM27.0606 19.524H32.2686L29.6366 12.132L27.0606 19.524ZM42.3436 27C42.1383 27 41.9703 26.9347 41.8396 26.804C41.7089 26.6733 41.6436 26.5053 41.6436 26.3V8.1C41.6436 7.89467 41.7089 7.72667 41.8396 7.596C41.9703 7.46533 42.1383 7.4 42.3436 7.4H45.8716C46.0769 7.4 46.2449 7.46533 46.3756 7.596C46.5063 7.72667 46.5716 7.89467 46.5716 8.1V14.316L51.7516 7.932C51.8263 7.82 51.9476 7.708 52.1156 7.596C52.3023 7.46533 52.5449 7.4 52.8436 7.4H56.8756C57.0436 7.4 57.1836 7.46533 57.2956 7.596C57.4076 7.708 57.4636 7.83867 57.4636 7.988C57.4636 8.11867 57.4263 8.23067 57.3516 8.324L50.6596 16.78L57.8836 26.076C57.9583 26.1507 57.9956 26.2627 57.9956 26.412C57.9956 26.5613 57.9303 26.7013 57.7996 26.832C57.6876 26.944 57.5569 27 57.4076 27H53.2356C52.8996 27 52.6383 26.9253 52.4516 26.776C52.2836 26.6267 52.1716 26.5147 52.1156 26.44L46.5716 19.524V26.3C46.5716 26.5053 46.5063 26.6733 46.3756 26.804C46.2449 26.9347 46.0769 27 45.8716 27H42.3436ZM60.8827 27C60.6773 27 60.5093 26.9347 60.3787 26.804C60.248 26.6733 60.1827 26.5053 60.1827 26.3V8.1C60.1827 7.89467 60.248 7.72667 60.3787 7.596C60.5093 7.46533 60.6773 7.4 60.8827 7.4H73.9587C74.164 7.4 74.332 7.46533 74.4627 7.596C74.5933 7.72667 74.6587 7.89467 74.6587 8.1V10.732C74.6587 10.9373 74.5933 11.1053 74.4627 11.236C74.332 11.3667 74.164 11.432 73.9587 11.432H65.0267V15.212H73.3427C73.548 15.212 73.716 15.2867 73.8467 15.436C73.9773 15.5667 74.0427 15.7347 74.0427 15.94V18.376C74.0427 18.5627 73.9773 18.7307 73.8467 18.88C73.716 19.0107 73.548 19.076 73.3427 19.076H65.0267V22.968H74.1827C74.388 22.968 74.556 23.0333 74.6867 23.164C74.8173 23.2947 74.8827 23.4627 74.8827 23.668V26.3C74.8827 26.5053 74.8173 26.6733 74.6867 26.804C74.556 26.9347 74.388 27 74.1827 27H60.8827Z" fill="#1E1E1E"/>
</svg>
